<svg width="24" height="25" viewBox="0 0 24 25" fill="none" xmlns="http://www.w3.org/2000/svg">
<g id="Icon Frame">
<path id="Subtract" fill-rule="evenodd" clip-rule="evenodd" d="M2 12.9502C2 7.42735 6.47715 2.9502 12 2.9502C17.5228 2.9502 22 7.42735 22 12.9502C22 18.473 17.5228 22.9502 12 22.9502C6.47715 22.9502 2 18.473 2 12.9502ZM15.7071 11.6574C16.0976 11.2669 16.0976 10.6337 15.7071 10.2432C15.3166 9.85269 14.6834 9.85269 14.2929 10.2432L11 13.5361L9.70711 12.2432C9.31658 11.8527 8.68342 11.8527 8.29289 12.2432C7.90237 12.6337 7.90237 13.2669 8.29289 13.6574L10.2929 15.6574C10.6834 16.0479 11.3166 16.0479 11.7071 15.6574L15.7071 11.6574Z" fill="white"/>
</g>
</svg>
