<svg width="30" height="30" viewBox="0 0 30 30" fill="none" xmlns="http://www.w3.org/2000/svg">
<g id="Clip path group">
<mask id="mask0_2860_204" style="mask-type:luminance" maskUnits="userSpaceOnUse" x="0" y="0" width="30" height="30">
<g id="clip0_602_656">
<path id="Vector" d="M30 0H0V30H30V0Z" fill="white"/>
</g>
</mask>
<g mask="url(#mask0_2860_204)">
<g id="Group">
<path id="Vector_2" fill-rule="evenodd" clip-rule="evenodd" d="M15.0002 0C23.2851 0 30.0002 6.71514 30.0002 15C30.0002 23.2849 23.2851 30 15.0002 30C6.71535 30 0.000228882 23.2849 0.000228882 15C0.000228882 6.71514 6.71535 0 15.0002 0Z" fill="#F0B90B"/>
<path id="Vector_3" d="M8.24402 15L8.2548 18.9663L11.625 20.9495V23.2716L6.28248 20.1382V13.8401L8.24402 15ZM8.24402 11.0337V13.345L6.28125 12.1839V9.87258L8.24402 8.71155L10.2163 9.87258L8.24402 11.0337ZM13.0325 9.87258L14.9952 8.71155L16.9676 9.87258L14.9952 11.0337L13.0325 9.87258Z" fill="white"/>
<path id="Vector_4" d="M9.66229 18.1443V15.8221L11.625 16.9832V19.2945L9.66229 18.1443ZM13.0325 21.7812L14.9952 22.9423L16.9675 21.7812V24.0926L14.9952 25.2536L13.0325 24.0926V21.7812ZM19.7825 9.87258L21.7452 8.71155L23.7176 9.87258V12.1839L21.7452 13.345V11.0337L19.7825 9.87258ZM21.7452 18.9663L21.756 15L23.7188 13.839V20.137L18.3762 23.2705V20.9483L21.7452 18.9663Z" fill="white"/>
<path id="Vector_5" d="M20.3377 18.1443L18.375 19.2945V16.9832L20.3377 15.8221V18.1443Z" fill="white"/>
<path id="Vector_6" d="M20.3377 11.8557L20.3486 14.1779L16.9688 16.161V20.137L15.006 21.2873L13.0433 20.137V16.161L9.66346 14.1779V11.8557L11.6346 10.6947L14.994 12.6875L18.3738 10.6947L20.3462 11.8557H20.3377ZM9.66229 7.89065L14.9952 4.7464L20.3377 7.89065L18.375 9.05169L14.9952 7.05891L11.625 9.05169L9.66229 7.89065Z" fill="white"/>
</g>
</g>
</g>
</svg>
