<svg xmlns="http://www.w3.org/2000/svg" width="250" height="253" viewBox="0 0 250 253" fill="none">
  <path d="M203.911 240.572V250.231C203.911 251.311 203.097 252.192 202.089 252.192H138.889C137.882 252.192 137.066 251.311 137.066 250.231V240.572C137.066 239.485 137.882 238.605 138.889 238.605H202.089C203.097 238.605 203.912 239.485 203.912 240.572H203.911Z" fill="white"/>
  <path d="M203.911 240.573V250.232C203.911 251.311 203.097 252.192 202.089 252.192H138.889C138.113 252.192 137.45 251.67 137.192 250.939H200.471C201.479 250.939 202.294 250.06 202.294 248.979V239.321C202.293 239.077 202.251 238.835 202.168 238.605C203.143 238.656 203.912 239.514 203.912 240.573H203.911Z" fill="#1CBDF7"/>
  <path d="M192.615 242.149H194.77V248.647H192.615V242.149ZM184.881 242.149H187.035V248.647H184.881V242.149ZM177.146 242.149H179.3V248.647H177.146V242.149ZM169.412 242.149H171.566V248.647H169.412V242.149ZM161.677 242.149H163.832V248.647H161.677V242.149ZM153.943 242.149H156.097V248.647H153.943V242.149ZM146.208 242.149H148.362V248.647H146.208V242.149Z" fill="#1CBDF7"/>
  <path d="M235.214 0H239.041C245.407 0 250.305 5.15865 249.985 11.5254L249.838 14.434H234.486L235.214 0Z" fill="#1675D4"/>
  <path d="M234.579 12.5996H249.931L244.302 124.267C243.981 130.633 238.561 135.793 232.195 135.793H228.368L234.578 12.5996H234.579Z" fill="#C5D3D8"/>
  <path d="M128.343 14.434L128.49 11.5254C128.81 5.15932 134.23 0 140.596 0H236.365C242.731 0 247.631 5.15865 247.31 11.5254L247.164 14.434H128.343Z" fill="#12B7F2"/>
  <path d="M247.255 12.5996L241.626 124.267C241.305 130.633 235.886 135.793 229.519 135.793H133.75C127.384 135.793 122.485 130.634 122.806 124.268L128.436 12.5996H247.255Z" fill="#E5EDF0"/>
  <path d="M147.033 7.55897C147.016 7.83033 147.055 8.10231 147.147 8.35788C147.24 8.61346 147.385 8.84714 147.572 9.0443C147.759 9.24145 147.985 9.39786 148.236 9.50371C148.486 9.60957 148.756 9.66261 149.028 9.65951C150.182 9.65951 151.169 8.72055 151.227 7.55897C151.286 6.39739 150.394 5.45776 149.24 5.45776C148.078 5.45776 147.091 6.39739 147.033 7.55897ZM141.303 7.55897C141.285 7.83033 141.324 8.10231 141.417 8.35788C141.51 8.61346 141.655 8.84714 141.842 9.0443C142.029 9.24145 142.255 9.39786 142.505 9.50371C142.756 9.60957 143.026 9.66261 143.297 9.65951C144.452 9.65951 145.438 8.72055 145.497 7.55897C145.555 6.39739 144.663 5.45776 143.509 5.45776C142.348 5.45776 141.361 6.39739 141.303 7.55897ZM135.572 7.55897C135.555 7.83028 135.594 8.1022 135.687 8.35773C135.78 8.61326 135.924 8.8469 136.112 9.04405C136.299 9.2412 136.525 9.39761 136.775 9.50351C137.025 9.60941 137.295 9.66252 137.567 9.65951C138.721 9.65951 139.708 8.72055 139.766 7.55897C139.825 6.39739 138.933 5.45843 137.779 5.45843C136.617 5.45843 135.631 6.39806 135.572 7.55897Z" fill="white"/>
  <path d="M192.607 32.0662L191.238 43.7883L189.929 55.012L188.893 63.8966L187.57 75.1735L186.407 85.1479C186.31 85.9769 185.912 86.7414 185.289 87.2964C184.665 87.8513 183.86 88.1579 183.025 88.1581H170.054C168.02 88.1581 166.439 86.3772 166.678 84.3571L166.738 83.872L167.302 79.0277L168.299 70.4687L168.964 64.7804L169.615 59.1586L170.206 54.1082L170.565 51.0648L171.123 46.2403L172.359 35.6812L172.871 31.2754C172.891 31.1292 172.911 30.9897 172.951 30.8501C173.133 30.1118 173.557 29.4558 174.156 28.9871C174.754 28.5184 175.493 28.2642 176.253 28.2651H189.225C191.258 28.2651 192.847 30.0394 192.607 32.0662Z" fill="#30373E"/>
  <path d="M180.215 28.2605C178.487 28.2605 177.034 29.5563 176.834 31.2721L170.636 84.3564C170.398 86.3786 171.983 88.1568 174.017 88.1568H170.054C168.019 88.1568 166.435 86.3786 166.673 84.3558L172.871 31.2721C172.967 30.4429 173.365 29.6781 173.988 29.1229C174.612 28.5677 175.417 28.2608 176.252 28.2605H180.215H180.215ZM142 106.024H215.249V119.955H142V106.024Z" fill="#4B5F73"/>
  <path d="M144.503 108.526H212.749V117.45H144.503V108.526ZM86.8375 12.4704C86.8375 12.4704 90.2345 23.8562 80.4787 23.8562C70.7229 23.8562 81.2814 11.1772 81.2814 11.1772" fill="#30373E"/>
  <path d="M14.3166 209.128L9.08289 217.651L10.3641 223.955L21.1904 226.011L26.6441 218.641L14.3166 209.128Z" fill="#9DE5FF"/>
  <path d="M20.6972 231.179C20.6321 231.129 20.5879 231.057 20.5731 230.976C20.5584 230.895 20.5742 230.811 20.6174 230.741C20.8301 230.396 22.7412 227.364 24.2802 227.278C24.6816 227.255 25.0338 227.424 25.3003 227.765C25.6345 228.194 25.5993 228.586 25.5096 228.839C25.0152 230.248 21.3883 231.141 20.9763 231.238C20.9282 231.25 20.8782 231.25 20.83 231.24C20.7817 231.23 20.7363 231.209 20.6972 231.179V231.179ZM24.6457 228.04C24.5528 227.967 24.4355 227.931 24.3175 227.94C23.5852 227.982 22.4555 229.252 21.6647 230.366C23.025 229.958 24.651 229.279 24.883 228.619C24.9175 228.52 24.9375 228.38 24.7766 228.174C24.7387 228.124 24.6947 228.079 24.6457 228.041V228.04Z" fill="#C5D3D8"/>
  <path d="M30.9808 249.927L1.79712 227.407L9.08024 217.652C11.2931 221.449 16.4391 225.066 21.1878 226.01L20.9738 228.593L28.9174 241.907L30.501 244.555C30.9951 245.35 31.2959 246.251 31.3792 247.184C31.4625 248.117 31.3261 249.056 30.9808 249.927Z" fill="#586E83"/>
  <path d="M1.80167 227.406L0.291883 229.362C0.0647757 229.657 -0.0360581 230.03 0.011541 230.399C0.0591401 230.768 0.251277 231.103 0.545728 231.33L27.5843 252.196C27.9127 252.447 28.327 252.557 28.7366 252.503C29.1463 252.45 29.518 252.236 29.7706 251.909L30.1427 251.426C30.241 251.299 30.3288 251.173 30.4098 251.044C30.4889 250.931 30.5574 250.818 30.6198 250.701C30.6916 250.572 30.7527 250.446 30.8145 250.318L30.9806 249.923L1.80167 227.406Z" fill="#C5D3D8"/>
  <path d="M19.1822 232.518L24.8472 241.432C25.4731 242.417 26.7331 242.821 27.8142 242.361L28.918 241.906L20.9717 228.591L20.0407 229.114C19.7543 229.275 19.5037 229.492 19.3041 229.753C19.1046 230.014 18.9602 230.313 18.88 230.631C18.7997 230.95 18.7851 231.281 18.8372 231.606C18.8893 231.93 19.0069 232.241 19.1828 232.518H19.1822Z" fill="#435669"/>
  <path d="M25.6811 240.309C25.7327 240.349 25.795 240.373 25.8601 240.377C25.9253 240.382 25.9903 240.368 26.0472 240.336L27.9537 239.263C27.9934 239.242 28.0285 239.214 28.057 239.18C28.0854 239.146 28.1067 239.106 28.1195 239.063C28.1323 239.02 28.1363 238.975 28.1314 238.931C28.1265 238.887 28.1126 238.844 28.0908 238.805C28.0689 238.766 28.0394 238.732 28.0041 238.705C27.9687 238.677 27.9282 238.658 27.8851 238.646C27.8419 238.635 27.7969 238.633 27.7527 238.639C27.7086 238.646 27.6662 238.661 27.6281 238.684L25.7209 239.756C25.6731 239.783 25.6326 239.821 25.6032 239.868C25.5738 239.914 25.5563 239.967 25.5524 240.022C25.5484 240.077 25.5581 240.131 25.5806 240.182C25.603 240.232 25.6376 240.275 25.6811 240.309ZM24.2012 238.014C24.2528 238.053 24.3149 238.077 24.3799 238.082C24.4449 238.087 24.5099 238.072 24.5667 238.04L26.4738 236.968C26.5507 236.925 26.6072 236.853 26.631 236.768C26.6548 236.684 26.6439 236.593 26.6008 236.516C26.5576 236.439 26.4856 236.382 26.4008 236.359C26.3159 236.335 26.2251 236.346 26.1482 236.389L24.2411 237.461C24.1932 237.488 24.1527 237.526 24.1233 237.572C24.0939 237.619 24.0764 237.672 24.0725 237.727C24.0685 237.781 24.0782 237.836 24.1007 237.886C24.1231 237.936 24.1577 237.98 24.2012 238.014ZM22.7206 235.719C22.7722 235.759 22.8344 235.783 22.8994 235.787C22.9644 235.792 23.0293 235.778 23.0861 235.746L24.9933 234.673C25.0329 234.653 25.068 234.624 25.0965 234.59C25.125 234.556 25.1463 234.516 25.1591 234.473C25.1719 234.43 25.1759 234.386 25.171 234.341C25.166 234.297 25.1522 234.254 25.1303 234.215C25.1085 234.176 25.079 234.142 25.0436 234.115C25.0083 234.088 24.9678 234.068 24.9246 234.056C24.8815 234.045 24.8364 234.043 24.7923 234.049C24.7482 234.056 24.7058 234.071 24.6677 234.094L22.7605 235.166C22.7126 235.193 22.6722 235.232 22.6428 235.278C22.6134 235.324 22.5959 235.377 22.5919 235.432C22.588 235.487 22.5977 235.542 22.6201 235.592C22.6426 235.642 22.6771 235.686 22.7206 235.719ZM21.2408 233.424C21.2924 233.464 21.3545 233.487 21.4195 233.492C21.4845 233.497 21.5494 233.482 21.6062 233.45L23.5134 232.378C23.5531 232.357 23.5882 232.329 23.6166 232.295C23.6451 232.26 23.6664 232.221 23.6792 232.178C23.692 232.135 23.696 232.09 23.6911 232.046C23.6862 232.002 23.6723 231.959 23.6505 231.92C23.6286 231.881 23.5991 231.847 23.5637 231.82C23.5284 231.792 23.4879 231.773 23.4448 231.761C23.4016 231.75 23.3566 231.748 23.3124 231.754C23.2683 231.761 23.2259 231.776 23.1878 231.799L21.2806 232.871C21.2328 232.898 21.1923 232.936 21.1629 232.983C21.1335 233.029 21.116 233.082 21.1121 233.137C21.1081 233.191 21.1178 233.246 21.1403 233.297C21.1627 233.347 21.1972 233.39 21.2408 233.424Z" fill="#C5D3D8"/>
  <path d="M20.9233 230.927C20.8745 230.889 20.8372 230.839 20.8155 230.781C20.7937 230.723 20.7884 230.661 20.8001 230.6C20.8119 230.54 20.8401 230.484 20.8818 230.439C20.9235 230.393 20.977 230.36 21.0362 230.344C21.4323 230.232 24.9316 229.261 26.0228 230.198C26.2906 230.424 26.4108 230.741 26.371 231.114C26.3311 231.487 26.145 231.776 25.834 231.95C24.5715 232.653 21.3459 231.138 20.9831 230.962C20.9619 230.953 20.9419 230.941 20.9233 230.927ZM25.5755 230.691C25.0625 230.295 23.4677 230.472 22.1559 230.752C23.3946 231.25 24.9349 231.69 25.5117 231.369C25.632 231.302 25.6938 231.202 25.7104 231.044C25.731 230.849 25.6639 230.764 25.5941 230.706C25.588 230.701 25.5818 230.696 25.5755 230.691Z" fill="#C5D3D8"/>
  <path d="M67.7306 226.205L68.7938 236.151L73.6594 240.358L83.487 235.372L83.3016 226.205H67.7306Z" fill="#9DE5FF"/>
  <path d="M86.2532 239.765C86.1711 239.765 86.0918 239.734 86.0308 239.679C85.9698 239.624 85.9313 239.549 85.9229 239.467C85.8798 239.064 85.5402 235.495 86.7071 234.487C87.0101 234.224 87.3922 234.142 87.8115 234.25C88.3385 234.384 88.5491 234.717 88.6342 234.972C89.1033 236.39 86.7775 239.313 86.511 239.641C86.4799 239.68 86.4406 239.711 86.396 239.732C86.3514 239.753 86.3026 239.764 86.2532 239.764V239.765ZM87.4613 234.867C87.339 234.867 87.236 234.907 87.141 234.99C86.5861 235.469 86.4678 237.165 86.5223 238.53C87.3503 237.376 88.2235 235.845 88.0029 235.181C87.9697 235.081 87.8999 234.958 87.6474 234.893C87.5867 234.877 87.5242 234.868 87.4613 234.867Z" fill="#C5D3D8"/>
  <path d="M105.848 248.325H68.9857L68.7916 236.153C72.8631 237.807 79.1468 237.526 83.4841 235.373L84.8922 237.548L99.3149 243.235L102.186 244.365C103.064 244.693 103.852 245.222 104.488 245.91C105.124 246.598 105.59 247.424 105.848 248.325Z" fill="#586E83"/>
  <path d="M68.9891 248.322V250.792C68.9891 251.563 69.6138 252.196 70.3919 252.196H104.545C105.403 252.196 106.1 251.49 106.1 250.633V250.023C106.1 249.863 106.094 249.71 106.079 249.558C106.072 249.423 106.058 249.29 106.035 249.157C106.013 249.012 105.985 248.874 105.956 248.736L105.847 248.322H68.9891Z" fill="#C5D3D8"/>
  <path d="M85.8726 241.751L95.8032 245.347C96.901 245.744 98.1443 245.294 98.7204 244.27L99.3158 243.235L84.8898 237.548L84.4718 238.531C84.3433 238.833 84.2778 239.159 84.2792 239.487C84.2806 239.816 84.3489 240.141 84.48 240.442C84.6111 240.743 84.8022 241.015 85.0416 241.24C85.281 241.465 85.5638 241.638 85.8726 241.751Z" fill="#435669"/>
  <path d="M95.7772 243.948C95.8423 243.948 95.906 243.928 95.9604 243.892C96.0147 243.857 96.0573 243.805 96.0828 243.745L96.9374 241.732C96.9544 241.692 96.9634 241.649 96.9637 241.605C96.964 241.561 96.9558 241.518 96.9394 241.478C96.923 241.437 96.8988 241.4 96.8682 241.369C96.8376 241.338 96.8012 241.313 96.761 241.296C96.7208 241.279 96.6776 241.27 96.634 241.27C96.5904 241.27 96.5471 241.278 96.5066 241.294C96.4662 241.311 96.4294 241.335 96.3983 241.366C96.3672 241.396 96.3424 241.433 96.3254 241.473L95.4708 243.486C95.4496 243.537 95.4411 243.592 95.4462 243.646C95.4513 243.701 95.4699 243.753 95.5001 243.799C95.5304 243.844 95.5714 243.882 95.6196 243.908C95.6679 243.934 95.7217 243.947 95.7765 243.948H95.7772ZM93.2028 243.035C93.268 243.035 93.3318 243.016 93.3862 242.98C93.4405 242.944 93.4831 242.893 93.5085 242.832L94.3631 240.819C94.3821 240.779 94.3928 240.735 94.3944 240.69C94.3961 240.645 94.3887 240.601 94.3728 240.559C94.3568 240.517 94.3326 240.479 94.3015 240.447C94.2705 240.415 94.2333 240.389 94.1921 240.372C94.1509 240.354 94.1066 240.345 94.0619 240.345C94.0172 240.345 93.973 240.354 93.9318 240.372C93.8907 240.39 93.8536 240.415 93.8226 240.448C93.7917 240.48 93.7676 240.518 93.7517 240.56L92.8971 242.573C92.8758 242.624 92.8672 242.679 92.8722 242.733C92.8773 242.788 92.8958 242.841 92.926 242.886C92.9563 242.932 92.9974 242.97 93.0457 242.995C93.094 243.021 93.148 243.035 93.2028 243.035ZM90.6291 242.123C90.6944 242.123 90.7581 242.103 90.8125 242.067C90.8668 242.031 90.9094 241.98 90.9348 241.92L91.7894 239.907C91.8084 239.866 91.8191 239.822 91.8208 239.778C91.8224 239.733 91.8151 239.688 91.7991 239.647C91.7831 239.605 91.7589 239.567 91.7278 239.534C91.6968 239.502 91.6596 239.477 91.6184 239.459C91.5772 239.442 91.533 239.433 91.4883 239.433C91.4435 239.433 91.3993 239.442 91.3582 239.46C91.3171 239.477 91.2799 239.503 91.249 239.535C91.218 239.567 91.1939 239.606 91.178 239.647L90.3235 241.661C90.3021 241.711 90.2935 241.766 90.2986 241.821C90.3036 241.876 90.3221 241.928 90.3523 241.974C90.3826 242.02 90.4237 242.057 90.472 242.083C90.5203 242.109 90.5743 242.123 90.6291 242.123ZM88.0555 241.21C88.1206 241.21 88.1843 241.191 88.2387 241.155C88.293 241.119 88.3356 241.068 88.3611 241.008L89.215 238.994C89.2341 238.954 89.2448 238.91 89.2464 238.865C89.2481 238.82 89.2407 238.776 89.2248 238.734C89.2088 238.692 89.1846 238.654 89.1535 238.622C89.1225 238.59 89.0852 238.564 89.0441 238.547C89.0029 238.529 88.9586 238.52 88.9139 238.521C88.8692 238.521 88.825 238.53 88.7838 238.547C88.7427 238.565 88.7056 238.59 88.6746 238.623C88.6437 238.655 88.6195 238.693 88.6037 238.735L87.7498 240.749C87.7285 240.799 87.7201 240.854 87.7252 240.908C87.7303 240.963 87.7488 241.015 87.7791 241.061C87.8093 241.107 87.8504 241.144 87.8986 241.17C87.9468 241.196 88.0007 241.21 88.0555 241.21Z" fill="#C5D3D8"/>
  <path d="M86.2783 239.426C86.2169 239.426 86.1567 239.409 86.1045 239.377C86.0522 239.344 86.01 239.298 85.9823 239.243C85.9547 239.188 85.9429 239.127 85.9481 239.066C85.9533 239.005 85.9754 238.946 86.0119 238.897C86.2571 238.566 88.434 235.66 89.8701 235.735C90.2203 235.751 90.5087 235.928 90.7054 236.247C90.9021 236.567 90.9313 236.91 90.7911 237.237C90.2203 238.565 86.7415 239.336 86.3468 239.42C86.3243 239.424 86.3013 239.426 86.2783 239.426ZM89.8169 236.398C89.169 236.398 88.0147 237.513 87.1475 238.536C88.432 238.173 89.9206 237.581 90.1804 236.975C90.2349 236.848 90.2223 236.73 90.1392 236.595C90.0375 236.429 89.9312 236.403 89.8408 236.399C89.8329 236.398 89.8249 236.398 89.8169 236.398Z" fill="#C5D3D8"/>
  <path d="M85.4912 230.645H65.4739L69.0683 176.236L63.0099 149.575L56.6345 121.53H84.2413C84.2413 121.53 93.8435 162.234 93.999 176.087C94.1545 189.89 85.4912 230.644 85.4912 230.644V230.645Z" fill="#1088FF"/>
  <path d="M69.0675 176.236L63.0098 149.576C66.8294 142.423 70.9601 135.051 70.9601 135.051C70.9601 135.051 68.1492 171.04 69.0675 176.236Z" fill="#1675D4"/>
  <path d="M47.5346 121.532L40.4515 122.476L35.0024 177.207L9.08289 212.731L25.5709 224.925C25.5709 224.925 49.57 199.293 55.5659 187.119C63.0929 171.837 74.0595 121.531 74.0595 121.531H47.5346V121.532Z" fill="#1088FF"/>
  <path d="M139.267 66.9002C139.267 66.9002 116.651 89.5669 102.282 92.4895C99.7471 93.0051 94.1738 91.8329 90.8871 90.1397C87.3047 88.295 83.6684 85.6689 80.8449 83.4148C77.7323 80.9401 75.5999 78.9287 75.5999 78.9287L82.2111 60.0045L102.848 71.9652L134.61 54.8259L139.267 66.9002Z" fill="#3FC4F4"/>
  <path d="M90.8869 90.1396C87.3045 88.2949 83.6683 85.6688 80.8447 83.4147C82.712 77.7291 85.8167 68.9236 85.8167 68.9236C85.8167 68.9236 88.6402 86.8988 90.8796 90.1323C90.8796 90.1323 90.8796 90.1396 90.8869 90.1396Z" fill="#175CA1"/>
  <path d="M87.1903 125.156C87.1982 125.307 87.1903 125.451 87.1604 125.604C86.6288 133.004 37.7069 136.853 37.5242 126.317C37.5242 126.256 37.5242 124.533 37.5089 121.967C37.4863 114.157 37.4332 98.5578 37.4332 98.5578C37.4332 98.5578 36.7806 92.0143 36.5759 84.3025C36.3327 75.2166 36.7122 64.5132 39.5204 60.9839C42.3293 57.4467 51.9848 55.6778 51.9848 55.6778C51.9848 55.6778 70.0663 54.8126 72.7603 55.7688C77.6644 57.4999 81.6495 58.9651 83.7979 61.4996C88.6708 67.2464 84.2677 102.52 84.2677 102.52C84.2677 102.52 86.8713 123.122 87.1903 125.156Z" fill="#3FC4F4"/>
  <path d="M76.8136 99.9699V115.272L37.5087 121.967C37.4861 114.157 37.4329 98.5578 37.4329 98.5578C37.4329 98.5578 36.7804 92.0143 36.5757 84.3026L48.1662 66.8743C48.1662 66.8743 51.2031 71.9904 51.9845 76.3549C52.766 80.7195 51.9845 95.9011 51.9845 95.9011L76.8136 99.9699Z" fill="#175CA1"/>
  <path d="M71.3534 55.4984C71.4418 58.288 68.8715 57.4142 65.097 57.6348C61.1943 57.8627 55.6967 57.4521 55.1492 55.5947L59.0924 37.8933L59.1004 37.9006C59.2798 38.1465 64.4471 45.2788 70.2085 46.7221C70.0503 47.7594 70.0264 48.8007 70.0782 49.7849C70.2862 53.4317 71.3534 55.4984 71.3534 55.4984Z" fill="#9DE5FF"/>
  <path d="M70.0782 49.7849C69.7513 49.5755 59.9277 43.2041 59.0924 37.8933L59.1004 37.9006C59.2798 38.1465 64.4471 45.2788 70.2085 46.7221C70.0503 47.7594 70.0264 48.8007 70.0782 49.7849Z" fill="#82D7F6"/>
  <path d="M75.092 47.5379C73.6001 48.0542 72.0923 48.0463 70.6084 47.6675C64.8431 46.2242 59.6499 39.3697 58.9727 38.4666C58.9457 38.4363 58.9213 38.4039 58.8996 38.3696C54.4487 36.5953 50.7713 29.8059 53.634 27.5399C57.5773 24.4353 60.1496 28.7733 60.1496 28.7733C60.1496 28.7733 63.2542 27.8948 63.2542 23.7256C63.2542 19.5644 61.674 17.6785 66.9556 17.6785C70.6649 17.6785 76.6164 19.6694 80.4785 19.4521C80.5111 19.6295 80.5516 19.8063 80.5835 19.9923C80.8015 21.1213 80.9623 22.3633 81.0839 23.6771C81.8979 32.9185 80.2533 45.6992 75.092 47.5379Z" fill="#9DE5FF"/>
  <path d="M75.4933 40.0644L75.4853 40.1674C75.421 40.7608 75.203 41.3271 74.8528 41.8104C74.5025 42.2937 74.0323 42.6773 73.4885 42.9232C73.0451 43.1213 72.5646 43.2227 72.079 43.2206C71.5934 43.2185 71.1138 43.113 70.6722 42.9111C70.2306 42.7091 69.8371 42.4154 69.5178 42.0494C69.1986 41.6835 68.961 41.2537 68.8209 40.7888C68.7039 40.4129 68.6559 40.0189 68.6794 39.6259L68.6853 39.5468C68.6906 39.4757 68.7186 39.4139 68.7239 39.3514C71.2258 39.2478 73.5463 39.3448 75.4847 39.8658C75.4873 39.9295 75.4986 39.9933 75.4933 40.0644Z" fill="#175CA1"/>
  <path d="M75.4934 40.0644L75.4854 40.1674C72.953 40.7575 70.7953 40.3974 68.6794 39.6259L68.6854 39.5468C68.6907 39.4757 68.7187 39.4139 68.724 39.3514C71.2259 39.2478 73.5464 39.3448 75.4848 39.8658C75.4874 39.9295 75.4987 39.9933 75.4934 40.0644Z" fill="white"/>
  <path d="M73.4886 42.9234C73.0453 43.1215 72.5648 43.2229 72.0792 43.2208C71.5936 43.2187 71.114 43.1132 70.6724 42.9112C70.2307 42.7093 69.8372 42.4155 69.518 42.0496C69.1988 41.6837 68.9612 41.2539 68.821 40.7889C69.3399 40.5508 69.9108 40.4486 70.4801 40.4919C71.0493 40.5351 71.5982 40.7224 72.0752 41.0361C72.7555 41.4774 73.2565 42.1464 73.4886 42.9234Z" fill="#3FC4F4"/>
  <path d="M80.4784 19.4524C76.6162 19.6697 70.6648 17.6781 66.9555 17.6781C61.6739 17.6781 63.2541 19.5654 63.2541 23.7259C63.2541 27.8951 60.1495 28.7736 60.1495 28.7736C60.1495 28.7736 59.6179 21.8227 61.2951 17.6695C63.2541 12.7999 73.1242 11.8078 77.8821 14.0977C79.0112 14.6459 79.8983 16.6541 80.4784 19.4524Z" fill="#9DE5FF"/>
  <path d="M74.951 35.7139C74.9193 35.7139 74.8876 35.7126 74.856 35.7099C74.8233 35.7073 74.7915 35.6983 74.7624 35.6834C74.7332 35.6685 74.7073 35.648 74.686 35.6231C74.6648 35.5981 74.6487 35.5693 74.6387 35.5381C74.6286 35.5069 74.6248 35.4741 74.6274 35.4415C74.6287 35.4083 74.6369 35.3758 74.6514 35.346C74.6659 35.3162 74.6865 35.2897 74.7118 35.2683C74.7371 35.2469 74.7666 35.2309 74.7984 35.2215C74.8302 35.2121 74.8636 35.2094 74.8965 35.2135C75.1185 35.2295 75.3657 35.1278 75.5677 34.9198C75.8448 34.6341 75.991 34.2148 75.9485 33.8267C75.9112 33.4924 75.767 33.1841 75.6142 32.8585C75.559 32.7402 75.5032 32.6226 75.4527 32.5023C74.755 30.8516 74.971 28.9 75.1444 27.3324C75.1597 27.1955 75.2886 27.0911 75.4195 27.1117C75.4851 27.1189 75.5452 27.1519 75.5866 27.2033C75.6279 27.2548 75.6472 27.3205 75.6401 27.3862C75.4727 28.8973 75.2647 30.7772 75.9119 32.3083C75.9598 32.4226 76.0123 32.5342 76.0647 32.6472C76.2289 32.9954 76.3977 33.3555 76.4435 33.7722C76.4712 34.044 76.4392 34.3186 76.3497 34.5768C76.2601 34.8349 76.1153 35.0704 75.9252 35.2667C75.6428 35.5578 75.3006 35.7139 74.951 35.7139Z" fill="#82D7F6"/>
  <path d="M78.5806 30.9177C79.0857 30.903 79.4745 30.1794 79.4489 29.3016C79.4233 28.4237 78.993 27.724 78.4879 27.7387C77.9827 27.7534 77.594 28.477 77.6196 29.3549C77.6452 30.2328 78.0754 30.9325 78.5806 30.9177Z" fill="#1D1D1E"/>
  <path d="M70.5108 30.9043C71.0159 30.8896 71.4047 30.166 71.3791 29.2881C71.3535 28.4103 70.9232 27.7106 70.4181 27.7253C69.9129 27.74 69.5242 28.4636 69.5498 29.3415C69.5754 30.2193 70.0056 30.919 70.5108 30.9043Z" fill="#1D1D1E"/>
  <path d="M77.1387 26.7068C77.0928 26.7068 77.0478 26.6942 77.0086 26.6703C76.9694 26.6465 76.9376 26.6122 76.9166 26.5714C76.8957 26.5306 76.8864 26.4848 76.8898 26.439C76.8932 26.3932 76.9092 26.3493 76.936 26.312C76.9613 26.2768 77.57 25.4442 78.5109 25.3538C79.0818 25.298 79.6313 25.5226 80.155 26.017C80.1787 26.0394 80.1979 26.0663 80.2113 26.0961C80.2246 26.126 80.232 26.1581 80.233 26.1908C80.2339 26.2235 80.2285 26.256 80.2168 26.2866C80.2052 26.3171 80.1877 26.3451 80.1653 26.3689C80.1428 26.3926 80.1159 26.4118 80.0861 26.4252C80.0563 26.4385 80.0241 26.4459 79.9915 26.4469C79.9588 26.4478 79.9263 26.4423 79.8957 26.4307C79.8651 26.4191 79.8372 26.4016 79.8134 26.3792C79.3987 25.9884 78.9774 25.811 78.5615 25.8495C77.8471 25.916 77.3454 26.5965 77.3401 26.6031C77.317 26.635 77.2868 26.6609 77.2518 26.6788C77.2168 26.6967 77.178 26.7067 77.1387 26.7068ZM68.702 26.6297C68.6562 26.6297 68.6113 26.617 68.5722 26.5932C68.5332 26.5693 68.5014 26.5352 68.4805 26.4945C68.4595 26.4537 68.4502 26.4081 68.4535 26.3624C68.4569 26.3167 68.4727 26.2729 68.4993 26.2356C68.5246 26.1997 69.1333 25.3678 70.0742 25.2774C70.649 25.2216 71.1939 25.4462 71.7176 25.9406C71.7414 25.963 71.7606 25.9898 71.774 26.0196C71.7875 26.0494 71.7949 26.0816 71.7959 26.1142C71.7969 26.1469 71.7915 26.1795 71.78 26.21C71.7684 26.2406 71.7509 26.2686 71.7285 26.2924C71.7062 26.3163 71.6793 26.3354 71.6495 26.3489C71.6197 26.3623 71.5876 26.3698 71.5549 26.3708C71.5222 26.3718 71.4897 26.3664 71.4591 26.3548C71.4285 26.3433 71.4005 26.3258 71.3767 26.3034C70.9627 25.912 70.5394 25.7319 70.1247 25.7731C69.4104 25.8396 68.9087 26.52 68.9033 26.5267C68.8803 26.5586 68.8499 26.5847 68.8148 26.6026C68.7796 26.6205 68.7414 26.6298 68.702 26.6297Z" fill="#1D1D1E"/>
  <path d="M70.3945 53.1124L72.7602 55.7671L71.6817 63.2429L65.097 57.6344L70.3945 53.1124ZM55.5678 52.8931L51.9847 55.6807L61.5777 64.3434L65.097 57.6344L55.5678 52.8931Z" fill="#175CA1"/>
  <path d="M83.9301 17.6782C84.7341 20.8486 79.6107 21.8607 77.982 21.9497C74.1191 22.167 70.6656 17.6782 66.9556 17.6782C61.674 17.6782 63.2542 19.5654 63.2542 23.726C63.2542 27.8951 60.1496 28.7736 60.1496 28.7736C60.1496 28.7736 57.5779 24.4357 53.634 27.5403C50.7713 29.8063 54.4487 36.5963 58.8997 38.3699C58.9083 38.3859 58.9322 38.4185 58.9728 38.467L57.6504 44.3699L57.6417 44.3612C57.239 44.0223 42.3286 31.3141 47.038 24.4682C45.9575 17.009 48.7153 3.77049 61.6847 6.25712C65.0936 6.91034 69.2136 7.53365 74.8747 5.92087C80.543 4.30808 83.124 7.19541 86.0751 10.1545C89.0349 13.1143 83.9301 17.6782 83.9301 17.6782Z" fill="#30373E"/>
  <path d="M98.9109 93.0493L95.7246 114.013C95.5445 115.198 94.5969 116.139 93.6067 116.111L82.8794 115.796C81.8953 115.766 81.2407 114.778 81.4208 113.593L84.6072 92.6293C84.7866 91.4438 85.7349 90.5028 86.719 90.5314L97.4463 90.8464C98.4364 90.8756 99.091 91.8631 98.9109 93.0493Z" fill="#4B5F73"/>
  <path d="M89.2077 90.6045C88.2242 90.5753 87.274 91.5169 87.0959 92.7024L83.9095 113.666C83.7261 114.851 84.384 115.84 85.3681 115.869L82.8795 115.796C81.8954 115.766 81.2428 114.779 81.4209 113.593L84.6072 92.6293C84.7853 91.4438 85.7349 90.5028 86.7191 90.5314L89.2077 90.6045Z" fill="#30373E"/>
  <path d="M92.727 105.487C92.4631 107.039 88.9286 107.206 88.9286 107.206C88.9286 107.206 92.0265 107.238 91.5202 108.854C91.051 110.341 87.4846 110.002 86.935 109.942C87.4254 110.034 90.4264 110.638 89.5001 111.85C88.4867 113.165 76.5147 113.775 76.5147 113.775L75.0089 102.113C75.0089 102.113 82.1618 98.6988 83.8749 98.7414L83.1639 102.847C83.1639 102.847 90.1034 101.754 90.2755 103.569C90.3353 104.199 89.9366 104.592 89.3971 104.84C91.0517 104.652 92.8725 104.63 92.727 105.487Z" fill="#9DE5FF"/>
  <path d="M76.8139 99.9697V115.272C66.05 116.942 40.4242 119.948 35.0576 115.166C26.8747 107.887 28.4536 65.3869 41.1219 59.5564C41.1219 59.5564 49.5022 61.5911 50.588 77.5768L48.1592 99.9697H76.8139Z" fill="#3FC4F4"/>
  <path d="M189.929 55.0119L191.239 43.7882C187.384 37.276 180.779 32.4715 172.951 30.8501C171.057 30.4514 169.09 30.2454 167.07 30.2454C151.713 30.2454 139.267 42.2466 139.267 57.0587C139.267 71.7578 151.534 83.6992 166.738 83.872H167.07C175.184 83.872 182.487 80.5161 187.57 75.1734L188.893 63.8966L189.929 55.0119Z" fill="#1CBDF7"/>
  <path d="M189.929 55.0119C189.012 45.5558 181.802 37.8208 172.359 35.681C170.658 35.2956 168.891 35.0896 167.07 35.0896C154.411 35.0896 144.111 44.9444 144.111 57.0586C144.111 69.1727 154.411 79.0275 167.07 79.0275H167.302C177.37 78.9279 185.902 72.6083 188.893 63.8965L189.929 55.0119Z" fill="white"/>
  <path d="M139.366 54.8261C139.366 54.8261 139.107 62.4282 140.968 66.3024L139.076 66.406L134.608 54.8261L137.337 50.0748C137.541 49.7196 137.855 49.4399 138.231 49.2772C138.607 49.1146 139.025 49.0779 139.424 49.1724L144.497 50.3732C144.949 50.4803 145.349 50.7433 145.626 51.116C145.904 51.4887 146.041 51.9472 146.014 52.411C145.986 52.8748 145.797 53.3141 145.478 53.6519C145.159 53.9897 144.731 54.2043 144.27 54.258L139.365 54.8261H139.366Z" fill="#9DE5FF"/>
  <path d="M166.89 66.4626C165.435 66.4626 164.037 66.2672 162.695 65.8778C161.352 65.4884 160.275 64.982 159.461 64.3581L160.89 61.1896C161.651 61.7439 162.569 62.1984 163.643 62.5532C164.716 62.9081 165.799 63.0855 166.89 63.0855C167.721 63.0855 168.392 62.9991 168.903 62.8257C169.413 62.6529 169.79 62.423 170.033 62.1372C170.275 61.8515 170.396 61.5186 170.396 61.1378C170.396 60.6527 170.206 60.2673 169.825 59.9815C169.444 59.6958 168.938 59.4619 168.305 59.2805C167.623 59.0858 166.934 58.9125 166.241 58.7608C165.483 58.5929 164.734 58.3934 163.993 58.1628C163.264 57.9398 162.566 57.6257 161.915 57.2278C161.294 56.8496 160.777 56.323 160.409 55.6954C160.037 55.0641 159.851 54.2713 159.851 53.3184C159.842 52.3093 160.131 51.32 160.681 50.4743C161.236 49.6171 162.08 48.9333 163.214 48.4223C164.348 47.9119 165.773 47.6561 167.487 47.6561C168.63 47.6561 169.76 47.795 170.878 48.0714C171.994 48.3492 172.968 48.7472 173.799 49.2669L172.474 52.4353C171.684 51.9774 170.837 51.6238 169.955 51.3833C169.089 51.1501 168.257 51.0325 167.461 51.0325C166.63 51.0325 165.963 51.1242 165.461 51.3056C164.959 51.487 164.591 51.7342 164.357 52.0459C164.123 52.3582 164.006 52.7038 164.006 53.0852C164.006 53.5703 164.197 53.9597 164.578 54.2541C164.959 54.5484 165.462 54.7777 166.085 54.9425C166.708 55.1066 167.401 55.2714 168.163 55.4356C168.925 55.6004 169.678 55.8037 170.422 56.0463C171.167 56.2888 171.851 56.5965 172.474 56.9686C173.096 57.3392 173.618 57.8564 173.994 58.4751C174.384 59.107 174.579 59.8905 174.579 60.8255C174.586 61.8242 174.292 62.8018 173.735 63.6311C173.172 64.4797 172.318 65.1635 171.176 65.6831C170.034 66.2028 168.604 66.4626 166.89 66.4626H166.89ZM165.928 69.2669V44.8518H168.552V69.2682H165.928V69.2669Z" fill="#1CBDF7"/>
  <path d="M196.177 226.987V236.645C196.177 237.725 195.362 238.606 194.354 238.606H131.155C130.147 238.606 129.332 237.725 129.332 236.645V226.986C129.332 225.899 130.147 225.019 131.155 225.019H194.354C195.362 225.019 196.177 225.899 196.177 226.986V226.987Z" fill="white"/>
  <path d="M196.177 226.987V236.645C196.177 237.725 195.362 238.606 194.354 238.606H131.155C130.379 238.606 129.716 238.083 129.458 237.353H192.737C193.744 237.353 194.56 236.473 194.56 235.393V225.735C194.559 225.491 194.516 225.249 194.433 225.019C195.408 225.07 196.177 225.928 196.177 226.987Z" fill="#1CBDF7"/>
  <path d="M184.881 228.563H187.036V235.061H184.881V228.563ZM177.146 228.563H179.301V235.061H177.146V228.563ZM169.412 228.563H171.566V235.061H169.412V228.563ZM161.678 228.563H163.832V235.061H161.678V228.563ZM153.943 228.563H156.098V235.061H153.943V228.563ZM146.208 228.563H148.363V235.061H146.208V228.563ZM138.474 228.563H140.628V235.061H138.474V228.563Z" fill="#1CBDF7"/>
  <path d="M203.911 213.401V223.059C203.911 224.139 203.097 225.02 202.089 225.02H138.889C137.882 225.02 137.066 224.139 137.066 223.059V213.401C137.066 212.313 137.882 211.434 138.889 211.434H202.089C203.097 211.434 203.912 212.313 203.912 213.401H203.911Z" fill="white"/>
  <path d="M203.911 213.401V223.06C203.911 224.139 203.097 225.02 202.089 225.02H138.889C138.113 225.02 137.45 224.497 137.192 223.767H200.471C201.479 223.767 202.294 222.887 202.294 221.807V212.149C202.293 211.905 202.251 211.663 202.168 211.433C203.143 211.483 203.912 212.342 203.912 213.401H203.911Z" fill="#1CBDF7"/>
  <path d="M192.615 214.977H194.77V221.475H192.615V214.977ZM184.881 214.977H187.035V221.475H184.881V214.977ZM177.146 214.977H179.3V221.475H177.146V214.977ZM169.412 214.977H171.566V221.475H169.412V214.977ZM161.677 214.977H163.832V221.475H161.677V214.977ZM153.943 214.977H156.097V221.475H153.943V214.977ZM146.208 214.977H148.362V221.475H146.208V214.977ZM208.682 128.999C208.682 144.469 195.684 157.009 179.643 157.009C163.601 157.009 150.603 144.469 150.603 128.999C150.603 124.879 151.527 120.972 153.175 117.45C154.77 114.061 157.042 111.031 159.827 108.525H199.458C202.243 111.031 204.515 114.061 206.11 117.45C207.758 120.972 208.682 124.879 208.682 128.999Z" fill="#1CBDF7"/>
  <path d="M203.625 128.999C203.625 141.652 192.867 151.945 179.643 151.945C166.419 151.945 155.66 141.652 155.66 128.999C155.66 124.793 156.85 120.846 158.93 117.45C161.255 113.642 164.698 110.532 168.818 108.525H190.468C194.588 110.532 198.03 113.642 200.356 117.45C202.436 120.846 203.625 124.793 203.625 128.999Z" fill="white"/>
  <path d="M185.517 128.96C186.434 128.687 187.268 128.189 187.942 127.511C188.978 126.465 189.575 125.062 189.61 123.59C189.683 120.334 186.846 117.676 183.583 117.689L182.287 117.696V117.45L182.281 114.952L178.852 114.972L178.865 117.45V117.709L176.479 117.723V117.45L176.46 114.978L173.037 114.992L173.044 117.45V117.736L170.027 117.749C169.808 117.749 169.628 117.935 169.628 118.161L169.642 121.384C169.642 121.61 169.828 121.79 170.047 121.79L172.293 121.783C172.718 121.783 173.064 122.122 173.064 122.547L173.124 135.485C173.124 135.917 172.778 136.263 172.359 136.263L170.113 136.269C170.005 136.271 169.902 136.315 169.826 136.392C169.751 136.469 169.708 136.573 169.708 136.681L169.721 139.904C169.728 140.13 169.907 140.316 170.127 140.31L173.15 140.303L173.164 143.041L176.586 143.021L176.579 140.29L178.965 140.276L178.978 143.014L182.4 143.001L182.394 140.257L183.922 140.25C185.51 140.25 186.959 139.592 187.989 138.549C188.524 138.012 188.947 137.375 189.234 136.673C189.52 135.971 189.664 135.22 189.657 134.462C189.651 133.221 189.244 132.016 188.499 131.025C187.753 130.034 186.707 129.309 185.517 128.96ZM177.25 121.557L181.118 121.537C182.527 121.53 183.676 122.673 183.689 124.082C183.689 124.793 183.397 125.438 182.945 125.896C182.48 126.361 181.842 126.647 181.138 126.654L177.277 126.667L177.25 121.557ZM183.889 136.19C183.351 136.728 182.613 137.067 181.796 137.067L177.323 137.087L177.297 131.166L181.762 131.146C182.152 131.143 182.538 131.216 182.899 131.362C183.26 131.509 183.588 131.725 183.866 131.998C184.143 132.272 184.363 132.597 184.514 132.956C184.666 133.315 184.744 133.7 184.746 134.09C184.746 134.914 184.414 135.651 183.889 136.19Z" fill="#1CBDF7"/>
  <path d="M217.701 179.454C226.048 179.454 232.815 172.928 232.815 164.878C232.815 156.828 226.048 150.303 217.701 150.303C209.354 150.303 202.587 156.828 202.587 164.878C202.587 172.928 209.354 179.454 217.701 179.454Z" fill="#1CBDF7"/>
  <path d="M217.7 176.819C210.82 176.819 205.221 171.463 205.221 164.878C205.221 158.294 210.82 152.937 217.7 152.937C224.582 152.937 230.18 158.294 230.18 164.878C230.18 171.462 224.582 176.82 217.7 176.82V176.819Z" fill="white"/>
  <path d="M220.757 164.858C221.235 164.717 221.669 164.456 222.02 164.102C222.559 163.558 222.869 162.828 222.887 162.062C222.927 160.367 221.447 158.985 219.751 158.993L219.078 158.996L219.073 157.569L217.29 157.577L217.295 159.003L216.052 159.008L216.046 157.582L214.262 157.59L214.267 159.016L212.698 159.024C212.642 159.025 212.588 159.048 212.549 159.087C212.51 159.127 212.488 159.181 212.488 159.237L212.495 160.916C212.495 161.033 212.591 161.126 212.708 161.126L213.875 161.122C214.096 161.122 214.278 161.298 214.278 161.522L214.309 168.255C214.309 168.478 214.13 168.658 213.909 168.658L212.742 168.663C212.686 168.663 212.632 168.686 212.593 168.726C212.553 168.766 212.53 168.82 212.53 168.876L212.536 170.554C212.54 170.671 212.633 170.767 212.75 170.765L214.322 170.76L214.327 172.186L216.11 172.177L216.105 170.752L217.347 170.747L217.355 172.171L219.138 172.163L219.132 170.737L219.928 170.734C220.322 170.733 220.712 170.654 221.075 170.502C221.439 170.35 221.768 170.128 222.046 169.848C222.323 169.568 222.543 169.236 222.691 168.872C222.84 168.507 222.916 168.116 222.913 167.722C222.91 167.076 222.698 166.449 222.309 165.933C221.921 165.417 221.376 165.04 220.756 164.858H220.757ZM216.456 161.004L218.467 160.994C218.82 160.993 219.159 161.132 219.41 161.381C219.661 161.629 219.803 161.967 219.805 162.32C219.806 162.673 219.667 163.012 219.419 163.262C219.171 163.513 218.833 163.655 218.48 163.658L216.469 163.665L216.456 161.004ZM219.909 168.619C219.767 168.763 219.598 168.878 219.411 168.957C219.224 169.035 219.023 169.076 218.821 169.076L216.492 169.087L216.479 166.004L218.805 165.994C219.11 165.991 219.409 166.08 219.664 166.248C219.918 166.415 220.118 166.655 220.236 166.936C220.354 167.218 220.387 167.528 220.328 167.827C220.27 168.127 220.124 168.402 219.909 168.619Z" fill="#1CBDF7"/>
  <path d="M173.433 201.338C181.78 201.338 188.547 194.812 188.547 186.762C188.547 178.712 181.78 172.187 173.433 172.187C165.086 172.187 158.319 178.712 158.319 186.762C158.319 194.812 165.086 201.338 173.433 201.338Z" fill="#1CBDF7"/>
  <path d="M173.433 198.704C166.552 198.704 160.953 193.347 160.953 186.763C160.953 180.177 166.552 174.821 173.433 174.821C180.314 174.821 185.912 180.177 185.912 186.763C185.912 193.347 180.314 198.704 173.432 198.704H173.433Z" fill="white"/>
  <path d="M176.488 186.743C176.966 186.601 177.4 186.341 177.751 185.986C178.29 185.442 178.601 184.712 178.619 183.946C178.659 182.252 177.179 180.87 175.483 180.878L174.81 180.88L174.804 179.454L173.021 179.462L173.027 180.888L171.785 180.893L171.777 179.466L169.995 179.474L169.999 180.901L168.43 180.909C168.374 180.909 168.32 180.932 168.281 180.972C168.241 181.012 168.219 181.066 168.22 181.122L168.227 182.801C168.227 182.918 168.323 183.011 168.44 183.011L169.607 183.006C169.828 183.006 170.01 183.182 170.01 183.406L170.041 190.139C170.041 190.362 169.862 190.542 169.641 190.542L168.474 190.547C168.418 190.548 168.364 190.571 168.325 190.61C168.285 190.65 168.262 190.704 168.261 190.76L168.268 192.439C168.271 192.556 168.365 192.652 168.482 192.65L170.054 192.644L170.059 194.071L171.842 194.06L171.837 192.636L173.079 192.632L173.087 194.055L174.869 194.048L174.864 192.621L175.66 192.618C176.054 192.617 176.443 192.539 176.807 192.387C177.17 192.234 177.5 192.012 177.778 191.732C178.055 191.453 178.274 191.121 178.423 190.756C178.572 190.391 178.648 190.001 178.645 189.607C178.642 188.961 178.43 188.333 178.041 187.817C177.653 187.302 177.108 186.925 176.488 186.743ZM172.187 182.889L174.199 182.879C174.552 182.878 174.891 183.017 175.141 183.265C175.392 183.513 175.534 183.851 175.537 184.204C175.538 184.557 175.399 184.896 175.151 185.146C174.903 185.397 174.565 185.539 174.212 185.542L172.201 185.55L172.187 182.889V182.889ZM175.641 190.503C175.499 190.648 175.329 190.763 175.143 190.841C174.956 190.92 174.755 190.96 174.552 190.96L172.224 190.971L172.211 187.889L174.537 187.878C174.842 187.876 175.141 187.964 175.395 188.132C175.65 188.3 175.85 188.54 175.968 188.821C176.086 189.102 176.118 189.412 176.06 189.712C176.002 190.011 175.856 190.287 175.641 190.503Z" fill="#1CBDF7"/>
</svg>