<svg width="300" height="176" viewBox="0 0 300 176" fill="none" xmlns="http://www.w3.org/2000/svg">
<path d="M120.081 3.87114C11.2928 15.0136 100.663 46.5653 104.676 70.963C108.689 95.3607 70.4979 42.5499 35.6283 55.7932C0.758796 69.0365 -5.32967 118.651 47.8053 169.28H252.043C252.043 169.28 325.417 122.664 227.498 105.63C185.805 98.3783 281.56 65.1827 284.881 40.1439C289.917 2.17242 217.236 -6.08067 120.081 3.87114Z" fill="#E7F9FF"/>
<path d="M15.0374 169.262H290.98V175.208H15.0374V169.262Z" fill="#83DEFF"/>
<path d="M45.8071 0.881592L67.153 135.855H222.93L209.759 27.7704L45.8071 0.881592Z" fill="#1E4D7B"/>
<path d="M42.3739 5.523L62.2162 135.855H67.1531L45.8072 0.881592L42.3739 5.523Z" fill="#143352"/>
<path d="M52.1656 9.31763L71.6949 130.054H216.572L206.126 32.9253L52.1656 9.31763Z" fill="white"/>
<path d="M119.13 162.178H149.387L158.22 135.854H128.185L119.13 162.178Z" fill="#143352"/>
<path d="M134.59 162.178H171.251V169.262H134.59V162.178Z" fill="#1E4D7B"/>
<path d="M109.854 162.178H134.59V169.262H109.854V162.178Z" fill="#2E6092"/>
<path d="M115.094 162.178H119.13L128.185 135.854H123.884L115.094 162.178Z" fill="#0F273E"/>
<path d="M97.9658 16.3374L98.7516 16.1939L102.526 36.8595L101.74 37.003L97.9658 16.3374Z" fill="#1088FF"/>
<path d="M123.611 20.2646L124.397 20.1226L127.96 39.8448L127.174 39.9868L123.611 20.2646Z" fill="#1088FF"/>
<path d="M149.432 24.2227L150.219 24.0827L153.526 42.6702L152.74 42.8101L149.432 24.2227Z" fill="#1088FF"/>
<path d="M113.664 104.647L114.453 104.524L118.43 129.979L117.641 130.103L113.664 104.647Z" fill="#1088FF"/>
<path d="M138.288 104.646L139.077 104.523L143.055 129.978L142.265 130.101L138.288 104.646Z" fill="#1088FF"/>
<path d="M161.81 104.39L162.599 104.268L166.576 130.015L165.786 130.137L161.81 104.39Z" fill="#1088FF"/>
<path d="M52.7983 69.8965L52.8011 69.1702L86.0418 69.2978L86.039 70.0241L52.7983 69.8965Z" fill="#1088FF"/>
<path d="M51.855 60.8014C51.7971 60.3718 51.5933 59.9751 51.2776 59.678C50.9619 59.3809 50.5536 59.2014 50.1212 59.1696L8.60893 56.1353C8.32307 56.1146 8.03622 56.1591 7.77011 56.2656C7.50401 56.3721 7.26562 56.5377 7.07301 56.75C6.8804 56.9622 6.73861 57.2155 6.65839 57.4907C6.57816 57.7659 6.56161 58.0557 6.60997 58.3382L12.5145 92.7084C12.5894 93.1434 12.8142 93.5384 13.15 93.825C13.4857 94.1116 13.9112 94.2716 14.3526 94.2773L54.2426 94.7647C54.5138 94.768 54.7825 94.7129 55.0305 94.6031C55.2784 94.4933 55.4998 94.3313 55.6796 94.1283C55.8594 93.9252 55.9933 93.6858 56.0723 93.4264C56.1513 93.167 56.1734 92.8935 56.1372 92.6248L51.855 60.8014Z" fill="#12B7F2"/>
<path d="M48.4957 93.4289L31.8343 78.056C31.2726 77.5377 30.5286 77.2628 29.7649 77.2913C29.0012 77.3198 28.2798 77.6494 27.7583 78.2081L13.9009 93.057C13.805 93.1598 13.741 93.2884 13.7167 93.427C13.6924 93.5655 13.7088 93.7082 13.7641 93.8376C13.8193 93.967 13.911 94.0775 14.0279 94.1558C14.1448 94.2341 14.2819 94.2768 14.4226 94.2786L47.9932 94.6888C48.1402 94.6908 48.2842 94.6481 48.4064 94.5665C48.5287 94.4849 48.6232 94.3681 48.6777 94.2316C48.7321 94.0951 48.7439 93.9453 48.7114 93.802C48.6789 93.6587 48.6037 93.5286 48.4957 93.4289Z" fill="white"/>
<path d="M45.6813 81.1658C45.6271 81.0973 45.5582 81.0419 45.4797 81.0036C45.4012 80.9653 45.3151 80.9452 45.2277 80.9448C45.1404 80.9443 45.0541 80.9635 44.9751 81.0009C44.8962 81.0384 44.8267 81.0931 44.7718 81.1611L34.781 93.5873C34.7128 93.6722 34.6698 93.7747 34.657 93.8829C34.6442 93.9911 34.662 94.1008 34.7085 94.1993C34.755 94.2979 34.8283 94.3814 34.92 94.4403C35.0116 94.4992 35.118 94.5312 35.227 94.5326L55.2166 94.7771C55.3264 94.7786 55.4343 94.749 55.5279 94.6917C55.6215 94.6343 55.6969 94.5517 55.7454 94.4532C55.7939 94.3548 55.8136 94.2446 55.802 94.1354C55.7904 94.0263 55.7482 93.9226 55.6801 93.8365L45.6813 81.1658ZM38.81 65.6034C36.9233 65.992 35.7741 68.476 36.2432 71.1503C36.7123 73.8246 38.6236 75.6778 40.5111 75.2916C42.3986 74.9053 43.547 72.4182 43.0779 69.7439C42.6088 67.0696 40.6975 65.214 38.81 65.6034Z" fill="white"/>
<path d="M84.5655 56.3229H77.7444L74.9068 39.3628L69.0636 38.5847L69.1592 37.8647L75.5343 38.7145L78.3592 55.5974H84.5655V56.3229Z" fill="#1088FF"/>
<path d="M66.8464 23.7326C66.7401 23.0498 66.4199 22.4183 65.9319 21.929C65.4439 21.4397 64.8132 21.1178 64.1306 21.0097L3.7795 11.4036C3.27237 11.3227 2.75332 11.3625 2.2645 11.5199C1.77567 11.6773 1.33087 11.9477 0.966193 12.3093C0.601522 12.6709 0.327272 13.1134 0.165721 13.6008C0.00416914 14.0883 -0.0401293 14.607 0.0364225 15.1148L4.62926 45.8558C4.73704 46.5809 5.08567 47.2486 5.61902 47.7514C6.15237 48.2543 6.83941 48.5631 7.56956 48.628L67.4707 54.0061C67.9655 54.0512 68.464 53.9828 68.9283 53.8061C69.3926 53.6294 69.8104 53.3491 70.15 52.9865C70.4897 52.624 70.7421 52.1887 70.888 51.7138C71.034 51.239 71.0697 50.7371 70.9924 50.2463L66.8464 23.7326Z" fill="#48C3EF"/>
<path d="M45.9058 35.9969L31.0514 27.9461C30.9786 27.906 30.8959 27.8876 30.813 27.893C30.7302 27.8984 30.6506 27.9274 30.5836 27.9765C30.5167 28.0256 30.4651 28.0929 30.4351 28.1703C30.4051 28.2477 30.3979 28.3321 30.4142 28.4136L32.7899 40.4854C32.8019 40.5457 32.8265 40.6028 32.8621 40.653C32.8977 40.7032 32.9435 40.7452 32.9966 40.7764C33.0496 40.8076 33.1086 40.8273 33.1697 40.8341C33.2309 40.8409 33.2928 40.8347 33.3514 40.8159L45.8317 36.7933C45.9126 36.7669 45.984 36.7175 46.0371 36.651C46.0902 36.5846 46.1227 36.5041 46.1305 36.4194C46.1384 36.3347 46.1213 36.2496 46.0814 36.1745C46.0415 36.0994 45.9804 36.0377 45.9058 35.9969Z" fill="white"/>
<path d="M220.734 61.4468L187.986 60.562L188.006 59.8356L219.902 60.6974L216.15 32.3567L226.617 33.7448L226.521 34.4648L216.994 33.2017L220.734 61.4468Z" fill="#1088FF"/>
<path d="M269.136 33.8218C269.075 33.3581 268.866 32.9262 268.541 32.59C268.216 32.2539 267.791 32.0313 267.33 31.9551L226.946 25.3155C226.607 25.2597 226.259 25.285 225.932 25.3893C225.604 25.4936 225.306 25.674 225.061 25.9157C224.816 26.1574 224.632 26.4536 224.524 26.78C224.416 27.1065 224.386 27.4539 224.438 27.7939L229.311 59.5702C229.388 60.0693 229.635 60.5263 230.011 60.8631C230.387 61.2 230.868 61.3958 231.373 61.4171L270.396 63.0744C270.714 63.0879 271.031 63.0317 271.324 62.9099C271.618 62.788 271.881 62.6034 272.096 62.369C272.311 62.1346 272.471 61.8561 272.567 61.553C272.663 61.2498 272.691 60.9295 272.649 60.6143L269.136 33.8218Z" fill="#12B7F2"/>
<path d="M230.917 59.5704C230.789 59.7407 230.71 59.9427 230.688 60.1546C230.667 60.3665 230.704 60.5802 230.795 60.7727C230.886 60.9652 231.028 61.1291 231.206 61.2467C231.383 61.3644 231.589 61.4313 231.802 61.4403L261.791 62.7146L245.733 39.8364L230.917 59.5704Z" fill="white"/>
<path d="M259.315 46.6568L248.484 62.1476L270.561 63.085C270.77 63.0934 270.976 63.0413 271.156 62.935C271.335 62.8286 271.48 62.6725 271.573 62.4856C271.665 62.2987 271.702 62.0889 271.678 61.8816C271.654 61.6744 271.57 61.4785 271.437 61.3178L259.315 46.6568ZM260.699 34.8869C259.08 35.2102 258.112 37.4975 258.536 39.995C258.961 42.4925 260.618 44.2557 262.238 43.9324C263.858 43.609 264.826 41.3218 264.401 38.8243C263.977 36.3268 262.319 34.5635 260.699 34.8869Z" fill="white"/>
<path d="M190.196 74.2878H262.167V75.0142H190.196V74.2878Z" fill="#1088FF"/>
<path d="M296.796 72.0335C296.731 71.5336 296.494 71.0717 296.127 70.7268C295.759 70.3819 295.283 70.1752 294.78 70.142L263.444 68.0714C263.118 68.0499 262.792 68.1017 262.489 68.2231C262.187 68.3444 261.915 68.5322 261.694 68.7726C261.474 69.0131 261.31 69.2999 261.215 69.612C261.12 69.9242 261.097 70.2536 261.146 70.5761L264.987 95.6165C265.063 96.1155 265.31 96.5725 265.687 96.9094C266.063 97.2462 266.544 97.442 267.048 97.4633L297.727 98.7662C298.044 98.7799 298.361 98.724 298.654 98.6024C298.948 98.4808 299.211 98.2964 299.426 98.0623C299.641 97.8282 299.802 97.5499 299.898 97.2469C299.994 96.944 300.023 96.6237 299.982 96.3085L296.796 72.0335Z" fill="#48C3EF"/>
<path d="M287.368 80.9699L277.324 76.0011C277.1 75.8902 276.849 75.8432 276.599 75.8655C276.35 75.8877 276.111 75.9783 275.91 76.1272C275.708 76.2762 275.552 76.4777 275.458 76.7098C275.363 76.9418 275.335 77.1954 275.375 77.4426L277.232 88.8128C277.27 89.0464 277.368 89.2661 277.517 89.4502C277.666 89.6342 277.86 89.7763 278.081 89.8625C278.301 89.9487 278.54 89.9759 278.775 89.9416C279.009 89.9072 279.23 89.8124 279.416 89.6665L287.603 83.2651C287.784 83.1231 287.927 82.9373 288.017 82.7253C288.107 82.5133 288.142 82.2819 288.119 82.0526C288.095 81.8234 288.014 81.6039 287.883 81.4145C287.751 81.2252 287.574 81.0722 287.368 80.9699Z" fill="white"/>
<path d="M258.364 121.021H247.71L247.666 120.709L243.18 89.4109H191.553V88.6846H243.809L243.854 88.996L248.339 120.294H258.364V121.021Z" fill="#1088FF"/>
<path d="M290.865 107.863C290.798 107.351 290.55 106.878 290.167 106.531C289.783 106.184 289.289 105.984 288.772 105.968L258.573 105.031C258.254 105.021 257.936 105.081 257.642 105.208C257.348 105.334 257.086 105.524 256.874 105.764C256.662 106.003 256.505 106.286 256.415 106.593C256.325 106.899 256.303 107.222 256.351 107.538L260.062 131.733C260.142 132.256 260.409 132.731 260.814 133.071C261.219 133.411 261.734 133.593 262.262 133.582L291.718 132.96C292.024 132.953 292.325 132.882 292.602 132.751C292.879 132.62 293.125 132.433 293.325 132.2C293.524 131.968 293.672 131.696 293.76 131.403C293.847 131.109 293.872 130.801 293.832 130.497L290.865 107.863Z" fill="#12B7F2"/>
<path d="M282.998 127.296L281.334 113.929H268.499L270.055 127.217L269.406 127.294L267.764 113.275H281.912L283.646 127.216L282.998 127.296Z" fill="white"/>
<path d="M272.506 125.09C270.74 125.09 269.309 126 269.309 127.124C269.309 128.248 270.742 129.158 272.506 129.158C274.27 129.158 275.704 128.247 275.704 127.124C275.704 126.001 274.268 125.09 272.506 125.09Z" fill="white"/>
<path d="M286.094 129.158C287.861 129.158 289.293 128.247 289.293 127.124C289.293 126.001 287.861 125.09 286.094 125.09C284.328 125.09 282.896 126.001 282.896 127.124C282.896 128.247 284.328 129.158 286.094 129.158Z" fill="white"/>
<path d="M268.132 113.602L268.57 117.344H282.088L281.623 113.602H268.132Z" fill="white"/>
<path d="M75.277 117.431H38.5192V116.705H74.4193L68.9854 84.2781H87.7239V85.0044H69.8431L75.277 117.431Z" fill="#1088FF"/>
<path d="M37.1191 105.406C37.0496 104.892 36.8001 104.419 36.4148 104.071C36.0295 103.724 35.5335 103.524 35.015 103.508L12.1711 102.806C11.8558 102.797 11.5423 102.856 11.2519 102.979C10.9616 103.102 10.7012 103.287 10.4888 103.52C10.2763 103.753 10.1166 104.029 10.0207 104.33C9.92483 104.63 9.89497 104.948 9.93319 105.261L12.0667 122.744C12.131 123.271 12.3845 123.757 12.78 124.111C13.1755 124.465 13.6862 124.663 14.217 124.669L37.221 124.939C37.5355 124.943 37.8471 124.879 38.1346 124.751C38.4221 124.624 38.6788 124.436 38.8872 124.2C39.0956 123.965 39.2508 123.687 39.3423 123.386C39.4338 123.085 39.4595 122.768 39.4175 122.457L37.1191 105.406Z" fill="#48C3EF"/>
<path d="M29.9292 119.489L28.4686 107.749H17.2402L18.606 119.411L17.9562 119.487L16.5051 107.095H29.046L30.5783 119.409L29.9292 119.489Z" fill="white"/>
<path d="M20.7229 121.125C22.2786 121.125 23.5398 120.323 23.5398 119.333C23.5398 118.344 22.2786 117.542 20.7229 117.542C19.1672 117.542 17.9061 118.344 17.9061 119.333C17.9061 120.323 19.1672 121.125 20.7229 121.125Z" fill="white"/>
<path d="M32.696 121.125C34.2517 121.125 35.5129 120.323 35.5129 119.333C35.5129 118.344 34.2517 117.542 32.696 117.542C31.1403 117.542 29.8792 118.344 29.8792 119.333C29.8792 120.323 31.1403 121.125 32.696 121.125Z" fill="white"/>
<path d="M16.8723 107.421L17.2586 110.718H29.1671L28.757 107.421H16.8723Z" fill="white"/>
<path d="M97.487 36.479L98.7899 42.4026L106.908 43.3304L105.739 37.9014L97.487 36.479ZM122.996 39.1788L124.506 45.3413L132.447 46.2484L131.211 40.5144L122.996 39.1788ZM148.86 42.108L150.313 48.2904L158.306 49.2039L157.041 43.3304L148.86 42.108ZM183.031 55.1617L184.189 64.2072L188.576 64.2861L187.416 55.2398L183.031 55.1617ZM184.972 70.3212L186.067 78.8817L190.776 79.029L189.617 70.4916L184.972 70.3212ZM186.797 84.5807L187.902 93.2145H192.154L190.98 84.5807H186.797ZM87.724 80.1185L88.8835 89.164H93.6364L92.2451 80.1185H87.724ZM85.5235 65.6654L86.6823 74.7117H91.4137L90.0224 65.6654H85.5235ZM84.1832 51.4011L85.3188 60.2587H89.1909L87.8171 51.3303L84.1832 51.4011ZM110.147 98.845L111.069 104.598H118.026L116.902 99.0441L110.147 98.845ZM133.966 99.4989L134.783 104.598H141.741L140.758 99.7458L133.966 99.4989ZM157.841 100.248L158.539 104.598H165.496L164.655 100.448L157.841 100.248Z" fill="#24BBF1"/>
<path d="M182.885 54.0139C182.811 53.4344 182.544 52.8965 182.128 52.4862C181.712 52.0759 181.171 51.8168 180.591 51.7505L89.6218 41.3551C89.2228 41.3094 88.8185 41.3563 88.4405 41.4923C88.0626 41.6283 87.7211 41.8497 87.4426 42.1392C87.1641 42.4286 86.9562 42.7785 86.835 43.1614C86.7137 43.5444 86.6825 43.9502 86.7436 44.3472L94.7268 96.2509C94.8196 96.8547 95.1211 97.407 95.5788 97.8116C96.0365 98.2162 96.6216 98.4476 97.2322 98.4657L185.863 101.072C186.24 101.083 186.615 101.012 186.963 100.864C187.31 100.716 187.621 100.495 187.875 100.215C188.128 99.9353 188.318 99.604 188.432 99.2438C188.545 98.8837 188.579 98.5033 188.531 98.1288L182.885 54.0139Z" fill="#3BC8FB"/>
<path d="M114.242 48.5483L117.276 68.9122C117.299 69.0681 117.266 69.2271 117.182 69.3602C117.097 69.4933 116.967 69.5914 116.816 69.6364C116.665 69.6815 116.503 69.6705 116.36 69.6055C116.216 69.5405 116.101 69.4258 116.035 69.2826C112.764 62.1827 109.417 54.8956 106.087 47.6205L96.951 46.5764L104.21 93.7702L112.964 94.0283L109.808 73.1212C109.785 72.9644 109.819 72.8043 109.905 72.6709C109.99 72.5375 110.122 72.4397 110.274 72.3957C110.333 72.3786 110.394 72.3701 110.455 72.3702C110.582 72.3703 110.707 72.4075 110.813 72.4773C110.92 72.547 111.003 72.6462 111.054 72.7628C114.194 79.979 117.346 87.2047 120.432 94.2473L129.808 94.5228L123.25 49.5812L114.242 48.5483Z" fill="#7ADAFD"/>
<path d="M113.47 47.8023C114.523 54.8712 115.576 61.94 116.629 69.0089C113.251 61.682 109.885 54.3487 106.529 47.0091L96.1754 45.8257C98.6654 62.0191 101.156 78.2126 103.647 94.406L113.727 94.7023C112.636 87.4752 111.545 80.2485 110.455 73.0219C113.63 80.3127 116.81 87.6003 119.996 94.8847L130.564 95.1961C128.316 79.7921 126.069 64.3884 123.821 48.985L113.47 47.8023ZM129.048 93.843L125.322 93.7339L120.862 93.6025C117.836 86.6889 114.738 79.593 111.651 72.4979C111.55 72.265 111.383 72.0667 111.171 71.9271C110.959 71.7875 110.71 71.7127 110.456 71.7118C110.334 71.7116 110.212 71.7288 110.095 71.7628C109.79 71.8507 109.527 72.0463 109.356 72.3134C109.184 72.5805 109.116 72.9008 109.163 73.2146L110.8 84.0545L112.202 93.3468L104.775 93.1286L101.299 70.5228L97.7291 47.3181L105.648 48.2236C108.929 55.3912 112.223 62.5684 115.443 69.5552C115.548 69.7821 115.716 69.9743 115.926 70.1091C116.136 70.2439 116.381 70.3156 116.631 70.3158C116.819 70.3155 117.004 70.2748 117.175 70.1964C117.346 70.1179 117.498 70.0037 117.62 69.8613C117.743 69.7189 117.834 69.5518 117.886 69.3713C117.938 69.1908 117.951 69.0012 117.923 68.8153L117.333 64.8525L115.014 49.2972L118.498 49.6954L122.676 50.1732L125.499 69.5209L129.048 93.843Z" fill="#1EBEF7"/>
<path d="M144.825 76.2539H144.868L151.599 76.6951L150.623 69.6247L143.575 69.0489C143.428 69.0368 143.289 68.9751 143.181 68.8738C143.073 68.7726 143.003 68.6378 142.981 68.4914L141.787 60.0106C141.774 59.918 141.781 59.8237 141.807 59.7341C141.834 59.6445 141.879 59.5616 141.941 59.491C142.002 59.4205 142.078 59.3639 142.163 59.325C142.248 59.2862 142.34 59.266 142.433 59.2659C142.455 59.2647 142.476 59.2647 142.497 59.2659L150.217 60.0193L149.187 52.5395L129.56 50.2969L135.973 94.6985L146.707 95.0171L144.174 76.9993C144.161 76.9067 144.168 76.8123 144.195 76.7226C144.221 76.6328 144.267 76.5499 144.328 76.4792C144.389 76.4086 144.465 76.3521 144.551 76.3133C144.636 76.2746 144.728 76.2546 144.822 76.2547L144.825 76.2539Z" fill="#7ADAFD"/>
<path d="M151.199 69.018L143.629 68.3992L142.434 59.9184L150.979 60.7522C150.574 57.8183 150.17 54.8841 149.766 51.9496L128.793 49.5532C130.997 64.8144 133.201 80.0758 135.403 95.3374L147.46 95.6926L144.82 76.9079L152.351 77.4017C151.969 74.6074 151.585 71.8128 151.199 69.018ZM148.109 75.8169L144.912 75.6074H144.827C144.64 75.6076 144.455 75.6478 144.285 75.7254C144.114 75.803 143.963 75.9162 143.84 76.0573C143.718 76.1985 143.626 76.3643 143.573 76.5436C143.52 76.7228 143.506 76.9115 143.532 77.0967L145.957 94.3467L141.476 94.2153L136.546 94.0703L130.334 51.0521L144.614 52.6839L148.614 53.141L149.462 59.2972L143.264 58.6919L142.566 58.6242C142.524 58.6242 142.481 58.6178 142.439 58.6178C142.252 58.6178 142.067 58.658 141.897 58.7355C141.727 58.8131 141.575 58.9263 141.453 59.0675C141.33 59.2087 141.239 59.3746 141.186 59.5539C141.133 59.7333 141.119 59.9219 141.145 60.1071L142.339 68.588C142.381 68.882 142.521 69.1532 142.737 69.357C142.953 69.5608 143.232 69.6851 143.528 69.7093L147.313 70.0183L150.053 70.2429L150.499 73.4723L150.847 75.9993L148.109 75.8169Z" fill="#1EBEF7"/>
<path d="M152.793 52.7957L153.816 60.238L160.586 60.899C160.732 60.9133 160.87 60.9768 160.976 61.0792C161.082 61.1815 161.151 61.3167 161.17 61.4629L165.77 95.536L176.506 95.8546L172.194 62.8359C172.182 62.7436 172.19 62.6499 172.217 62.561C172.244 62.472 172.29 62.3899 172.351 62.32C172.412 62.2501 172.488 62.1942 172.573 62.1558C172.657 62.1174 172.749 62.0976 172.842 62.0976C172.864 62.0964 172.885 62.0964 172.906 62.0976L179.404 62.7347L178.508 55.732L152.793 52.7957Z" fill="#7ADAFD"/>
<path d="M152.031 52.0513C152.434 54.9804 152.836 57.9096 153.239 60.8387L160.524 61.5499C162.083 73.0913 163.641 84.6325 165.198 96.1734L177.256 96.5286C175.784 85.2696 174.313 74.0122 172.842 62.7565L180.156 63.4732C179.801 60.6986 179.446 57.9239 179.092 55.1493L152.031 52.0513ZM172.97 61.4488C172.927 61.4488 172.885 61.4424 172.842 61.4424C172.656 61.4426 172.473 61.4824 172.303 61.5591C172.134 61.6359 171.983 61.7478 171.86 61.8875C171.738 62.0272 171.646 62.1915 171.592 62.3693C171.538 62.5472 171.522 62.7346 171.546 62.9189L174.488 85.4363L175.763 95.1731L166.346 94.8991L166.045 92.6692L161.824 61.3707C161.785 61.0788 161.648 60.8086 161.436 60.6041C161.224 60.3995 160.949 60.2726 160.656 60.2438L154.398 59.633L153.951 56.3829L153.559 53.5366L168.683 55.2647L177.929 56.3216L178.623 61.7506L178.655 62.0023L172.97 61.4488Z" fill="#1EBEF7"/>
<g style="mix-blend-mode:multiply" opacity="0.9">
<path d="M191.553 30.6914C191.553 30.6914 213.305 129.699 71.6949 130.054C216.572 130.054 216.937 131.708 216.937 131.708L206.126 32.9261L191.553 30.6914Z" fill="#E7F9FF"/>
</g>
<path d="M187.929 161.043H257.185V169.164H187.929V161.043Z" fill="#3BC8FB"/>
<path d="M187.929 167.064H257.185V169.164H187.929V167.064Z" fill="#1EBEF7"/>
<g style="mix-blend-mode:overlay">
<path d="M236.597 161.043H247.155V167.064H236.597V161.043ZM225.653 161.043H228.357V167.064H225.653V161.043ZM192.693 161.043H206.598V167.064H192.693V161.043Z" fill="white"/>
</g>
<g style="mix-blend-mode:multiply" opacity="0.5">
<path d="M187.929 161.043V169.164H249.344L236.597 161.043H187.929Z" fill="#1EBEF7"/>
</g>
<path d="M205.636 152.836H267.834V160.957H205.636V152.836Z" fill="#3BC8FB"/>
<path d="M205.636 158.856H267.834V160.956H205.636V158.856Z" fill="#1EBEF7"/>
<g style="mix-blend-mode:overlay">
<path d="M249.344 152.836H258.826V158.856H249.344V152.836ZM239.516 152.836H241.944V158.856H239.516V152.836ZM209.915 152.836H222.403V158.856H209.915V152.836Z" fill="white"/>
</g>
<path d="M212.833 144.888H282.088V153.009H212.833V144.888Z" fill="#3BC8FB"/>
<path d="M212.833 150.908H282.088V153.009H212.833V150.908Z" fill="#1EBEF7"/>
<g style="mix-blend-mode:overlay">
<path d="M261.501 144.888H272.059V150.909H261.501V144.888ZM250.557 144.888H253.261V150.909H250.557V144.888ZM217.597 144.888H231.502V150.909H217.597V144.888Z" fill="white"/>
</g>
<path d="M29.7032 159.513H105.156V169.262H29.7032V159.513Z" fill="#3BC8FB"/>
<path d="M29.7032 166.741H105.156V169.262H29.7032V166.741Z" fill="#1EBEF7"/>
<g style="mix-blend-mode:overlay">
<path d="M82.7266 159.513H94.229V166.741H82.7266V159.513ZM70.8029 159.513H73.7488V166.741H70.8029V159.513ZM34.8932 159.513H50.0424V166.741H34.8932V159.513Z" fill="white"/>
</g>
<path d="M36.8914 130.054H112.344V139.804H36.8914V130.054Z" fill="#3BC8FB"/>
<path d="M36.8914 137.283H112.344V139.804H36.8914V137.283Z" fill="#1EBEF7"/>
<g style="mix-blend-mode:overlay">
<path d="M89.9141 130.054H101.416V137.283H89.9141V130.054ZM77.9912 130.054H80.9371V137.282H77.9912V130.054ZM42.0815 130.054H57.2307V137.282H42.0815V130.054Z" fill="white"/>
</g>
<g style="mix-blend-mode:multiply" opacity="0.3">
<path d="M56.5377 166.741L52.9181 169.263L52.3279 169.673L105.156 169.263V159.513H66.918L56.5377 166.741ZM80.937 133.578L79.1841 137.283L77.9911 139.805H112.344V130.054H82.6039L80.937 133.578Z" fill="#1EBEF7"/>
</g>
<path d="M41.8887 149.658H109.652V159.408H41.8887V149.658Z" fill="#3BC8FB"/>
<path d="M41.8887 156.886H109.652V159.409H41.8887V156.886Z" fill="#1EBEF7"/>
<g style="mix-blend-mode:overlay">
<path d="M89.5087 149.658H99.8388V156.887H89.5087V149.658ZM78.8004 149.658H81.446V156.887H78.8004V149.658ZM46.5502 149.658H60.1559V156.887H46.5502V149.658Z" fill="white"/>
</g>
<path d="M32.3018 140.013H107.754V149.762H32.3018V140.013Z" fill="#3BC8FB"/>
<path d="M32.3018 147.241H107.754V149.764H32.3018V147.241Z" fill="#1EBEF7"/>
<g style="mix-blend-mode:overlay">
<path d="M85.3244 140.013H96.8268V147.241H85.3244V140.013ZM73.4015 140.013H76.3474V147.241H73.4015V140.013ZM37.4919 140.013H52.641V147.241H37.4919V140.013Z" fill="white"/>
</g>
<g style="mix-blend-mode:multiply" opacity="0.3">
<path d="M107.754 140.013H77.8239L76.3466 141.861L73.4015 145.544L72.0444 147.241L70.1116 149.658L70.028 149.763L67.8418 156.886L67.0677 159.408H109.652V149.658H107.754V140.013Z" fill="#1EBEF7"/>
</g>
<path d="M91.7713 112.308L104.144 114.443L113.111 94.1775L97.9888 95.5656L91.7713 112.308Z" fill="#7FD1EE"/>
<path d="M104.144 114.443L81.9572 110.95V112.792L104.925 116.412L114.938 94.86L113.111 94.1775L104.144 114.443Z" fill="#132333"/>
<path d="M112.173 100.308C113.561 99.7141 118.172 97.8394 115.156 98.048C113.256 98.1917 111.379 98.5478 109.559 99.1096L109.95 98.5028C109.95 98.5028 111.569 97.4173 111.286 96.7507C111.003 96.0841 108.938 97.0916 107.732 97.3034C106.526 97.5153 105.328 98.2894 104.585 100.391C101.252 100.937 98.8169 101.919 99.1164 103.582C99.3402 104.821 100.544 105.854 102.165 106.018C108.487 106.663 115.53 104.765 115.572 104.274C115.623 103.674 113.697 103.702 113.697 103.702C113.697 103.702 117.152 102.321 116.682 101.854C116.212 101.387 112.984 102.093 112.984 102.093C112.984 102.093 117.345 100.693 117.003 100.063C116.66 99.433 111.058 100.786 112.173 100.308Z" fill="#7BDCFF"/>
<path d="M86.2483 63.2045C86.2483 63.2045 88.0067 63.2221 87.2748 62.2831C86.9172 61.8244 85.9647 61.1387 83.9251 60.1113C77.7061 56.9791 76.4892 61.0057 76.4892 61.0057C65.3659 63.6386 70.5672 70.9678 71.1899 72.0844C71.3747 72.4157 71.7729 72.8274 72.2404 73.2432C73.3498 74.2267 74.8542 75.2341 74.8542 75.2341L74.5595 75.4078L85.6533 70.5768C85.6533 70.5768 89.5844 69.297 89.7667 67.2208C89.9491 65.1446 86.2483 63.2045 86.2483 63.2045Z" fill="#3E82C6"/>
<path d="M115.467 163.532L100.116 156.961L90.6747 156.855L89.668 166.093H116.746C117 165.064 116.472 164.005 115.467 163.532Z" fill="#2774C1"/>
<path d="M89.19 166.092H117.089V169.282H89.19V166.092Z" fill="#134E89"/>
<path d="M103.18 161.314C103.09 161.314 103.003 161.286 102.929 161.235C102.856 161.184 102.8 161.111 102.77 161.027C102.739 160.943 102.735 160.851 102.759 160.765C102.782 160.678 102.831 160.601 102.9 160.544L104.83 158.933C104.873 158.894 104.924 158.864 104.98 158.845C105.035 158.827 105.094 158.819 105.152 158.824C105.21 158.828 105.267 158.844 105.319 158.871C105.371 158.898 105.417 158.934 105.454 158.979C105.491 159.024 105.519 159.076 105.536 159.132C105.553 159.188 105.559 159.246 105.553 159.305C105.546 159.363 105.528 159.419 105.5 159.47C105.472 159.521 105.433 159.566 105.387 159.602L103.457 161.213C103.379 161.278 103.281 161.314 103.18 161.314ZM105.15 162.227C105.06 162.227 104.973 162.199 104.9 162.148C104.826 162.096 104.771 162.024 104.74 161.94C104.71 161.855 104.706 161.764 104.729 161.677C104.752 161.591 104.802 161.514 104.87 161.456L106.813 159.834C106.902 159.768 107.014 159.738 107.125 159.752C107.235 159.765 107.337 159.82 107.408 159.906C107.479 159.991 107.515 160.101 107.508 160.212C107.501 160.324 107.452 160.428 107.37 160.504L105.427 162.125C105.35 162.191 105.251 162.226 105.15 162.227ZM107.147 163.314C107.058 163.314 106.971 163.287 106.897 163.235C106.824 163.184 106.768 163.111 106.738 163.027C106.707 162.943 106.703 162.851 106.727 162.765C106.75 162.678 106.799 162.601 106.868 162.543L108.906 160.843C108.949 160.804 109 160.775 109.056 160.756C109.111 160.737 109.17 160.73 109.228 160.734C109.286 160.739 109.343 160.755 109.395 160.781C109.447 160.808 109.493 160.845 109.53 160.89C109.567 160.935 109.595 160.987 109.612 161.042C109.629 161.098 109.635 161.157 109.628 161.215C109.622 161.273 109.604 161.329 109.576 161.38C109.548 161.431 109.509 161.476 109.463 161.512L107.425 163.213C107.347 163.278 107.249 163.314 107.147 163.314Z" fill="white"/>
<path d="M99.6237 115.805L80.1756 112.497L66.0515 110.717L58.0238 109.707C56.3203 117.91 59.8412 129.724 68.4335 129.766H91.7791V129.826L88.5681 157.503L103.503 157.313L108.368 126.193C108.416 125.751 108.431 125.307 108.414 124.863C108.414 124.814 108.425 124.764 108.425 124.714C108.692 116.862 99.6237 115.805 99.6237 115.805Z" fill="#3A74AD"/>
<g style="mix-blend-mode:multiply" opacity="0.5">
<path d="M66.0476 110.717L58.0199 109.707C56.3164 117.91 59.8373 129.724 68.4297 129.766H91.7793C63.6457 129.489 66.0476 110.717 66.0476 110.717Z" fill="#3A74AD"/>
</g>
<path d="M94.2265 157.766L93.9016 157.436V157.356L94.5555 157.365V157.439L94.2265 157.766ZM94.573 156.496L93.9199 156.481C93.9255 156.233 93.9335 155.939 93.943 155.605L94.5969 155.625C94.5905 155.953 94.5793 156.245 94.573 156.492V156.496ZM94.6247 154.752L93.9717 154.73C93.9812 154.456 93.9916 154.163 94.0043 153.854L94.6574 153.879C94.6457 154.188 94.6348 154.477 94.6247 154.748V154.752ZM94.694 153.01L94.041 152.981C94.0537 152.7 94.0673 152.408 94.0816 152.105L94.7346 152.137C94.7203 152.436 94.7068 152.726 94.694 153.006V153.01ZM94.7792 151.269L94.1262 151.234C94.1413 150.951 94.1572 150.659 94.1748 150.358L94.827 150.396C94.8106 150.69 94.7946 150.98 94.7792 151.265V151.269ZM94.8788 149.529L94.2265 149.489C94.2441 149.203 94.2626 148.911 94.2823 148.613L94.9345 148.656C94.9154 148.951 94.8963 149.245 94.8788 149.525V149.529ZM94.9943 147.791L94.342 147.744C94.3622 147.458 94.3834 147.166 94.4057 146.868L95.0572 146.918C95.0349 147.212 95.0142 147.501 94.9943 147.787V147.791ZM95.1241 146.054L94.4726 146.001C94.4957 145.714 94.5196 145.424 94.5443 145.131L95.1957 145.185C95.1711 145.474 95.148 145.763 95.1241 146.05V146.054ZM95.2706 144.318L94.6192 144.259C94.6446 143.972 94.6712 143.682 94.6988 143.389L95.3495 143.45C95.3213 143.739 95.295 144.027 95.2706 144.314V144.318ZM95.4299 142.584L94.7792 142.519C94.8079 142.231 94.8374 141.941 94.8676 141.65L95.5175 141.717C95.4904 142.004 95.4609 142.292 95.4331 142.58L95.4299 142.584ZM95.6099 140.852L94.96 140.781C94.9908 140.492 95.0232 140.203 95.0572 139.912L95.7062 139.987C95.676 140.273 95.6449 140.56 95.6131 140.848L95.6099 140.852ZM95.8082 139.122L95.1591 139.042C95.1942 138.754 95.2297 138.465 95.2658 138.174L95.9149 138.254C95.8815 138.543 95.8469 138.831 95.8114 139.118L95.8082 139.122ZM96.0264 137.395L95.3781 137.309C95.4164 137.021 95.4556 136.732 95.496 136.443L96.1435 136.533C96.1058 136.818 96.0678 137.104 96.0296 137.391L96.0264 137.395ZM96.2653 135.671L95.6186 135.577C95.6601 135.288 95.7039 134.999 95.7477 134.709L96.3943 134.808C96.3524 135.093 96.3107 135.38 96.2693 135.667L96.2653 135.671ZM96.5289 133.947L95.883 133.843C95.9292 133.556 95.9765 133.268 96.0248 132.98L96.6699 133.088C96.6242 133.372 96.5786 133.657 96.5329 133.943L96.5289 133.947ZM96.8172 132.232L96.1737 132.118C96.2236 131.832 96.2767 131.545 96.333 131.259L96.9757 131.378C96.9253 131.662 96.8735 131.945 96.8204 132.228L96.8172 132.232ZM97.1358 130.527L96.4939 130.402C96.547 130.114 96.6041 129.828 96.6651 129.544L97.3022 129.674C97.2489 129.954 97.1923 130.237 97.139 130.523L97.1358 130.527ZM97.4838 128.824L96.8467 128.687C96.9088 128.4 96.9709 128.115 97.0354 127.831L97.6725 127.975C97.6088 128.253 97.5459 128.539 97.4854 128.82L97.4838 128.824ZM97.8677 127.13L97.2306 126.978C97.2982 126.696 97.3683 126.409 97.44 126.127L98.0771 126.286C98.0054 126.563 97.9354 126.846 97.8693 127.126L97.8677 127.13ZM97.7976 125.792C97.5045 125.765 97.2146 125.738 96.9279 125.712L96.9924 125.061L97.8581 125.141L97.7976 125.792ZM96.059 125.62C95.7665 125.589 95.4769 125.558 95.1902 125.526L95.2626 124.876C95.5478 124.908 95.8358 124.939 96.1267 124.969L96.059 125.62ZM94.3229 125.426C94.0304 125.392 93.7413 125.357 93.4556 125.322L93.5353 124.673C93.8193 124.708 94.1068 124.743 94.3978 124.777L94.3229 125.426ZM92.5891 125.211C92.2966 125.173 92.0078 125.134 91.7227 125.094L91.8126 124.447C92.0962 124.485 92.3834 124.524 92.6743 124.563L92.5891 125.211ZM90.8578 124.972C90.5663 124.93 90.2783 124.886 89.9937 124.842L90.0932 124.197C90.3759 124.24 90.6626 124.283 90.9525 124.326L90.8578 124.972ZM89.1304 124.705C88.8389 124.657 88.5517 124.609 88.2687 124.56L88.3794 123.915C88.6613 123.965 88.9467 124.013 89.2355 124.06L89.1304 124.705ZM87.407 124.407C87.1166 124.354 86.8301 124.301 86.5477 124.248L86.6719 123.606C86.9517 123.659 87.236 123.712 87.5248 123.765L87.407 124.407ZM85.6899 124.075C85.4032 124.017 85.1149 123.956 84.8338 123.895L84.9716 123.258C85.2503 123.318 85.5362 123.379 85.8205 123.437L85.6899 124.075ZM83.9793 123.705C83.6934 123.64 83.4067 123.572 83.1271 123.504L83.2816 122.867C83.558 122.934 83.8391 123.002 84.125 123.066L83.9793 123.705ZM82.2774 123.292C81.993 123.219 81.7079 123.143 81.4308 123.066L81.6044 122.436C81.8776 122.515 82.1619 122.586 82.4414 122.659L82.2774 123.292ZM80.5882 122.828C80.3055 122.748 80.0228 122.66 79.748 122.574L79.9431 121.951C80.2131 122.035 80.4918 122.119 80.7714 122.2L80.5882 122.828ZM78.9158 122.305C78.6346 122.212 78.3583 122.116 78.0859 122.019L78.3057 121.404C78.5709 121.498 78.8457 121.593 79.1228 121.685L78.9158 122.305ZM77.2624 121.713C76.9885 121.608 76.7162 121.5 76.4453 121.387L76.6962 120.783C76.9603 120.893 77.2257 120.999 77.4926 121.102L77.2624 121.713ZM75.6378 121.038C75.3662 120.915 75.0978 120.79 74.8414 120.663L75.1297 120.076C75.3805 120.199 75.6426 120.322 75.9078 120.442L75.6378 121.038ZM74.0545 120.259C73.7951 120.119 73.5385 119.974 73.2852 119.824L73.6197 119.261C73.8586 119.404 74.1087 119.546 74.3651 119.683L74.0545 120.259ZM72.535 119.351C72.2834 119.183 72.0388 119.01 71.8095 118.838L72.2029 118.315C72.4219 118.481 72.6561 118.646 72.8974 118.807L72.535 119.351ZM71.115 118.279C70.8841 118.078 70.6635 117.872 70.4612 117.666L70.9271 117.207C71.1174 117.402 71.3253 117.595 71.5427 117.784L71.115 118.279ZM69.8599 116.991C69.6688 116.756 69.4914 116.511 69.3287 116.256L69.8798 115.905C70.0295 116.139 70.1922 116.364 70.3672 116.58L69.8599 116.991ZM68.8891 115.457C68.7596 115.179 68.6512 114.892 68.565 114.598L69.1933 114.415C69.2697 114.678 69.3664 114.934 69.4824 115.182L68.8891 115.457ZM68.3818 113.691C68.358 113.488 68.346 113.283 68.3459 113.079C68.3459 112.974 68.3459 112.868 68.3555 112.764L69.0078 112.803C69.0022 112.894 68.9998 112.987 68.9998 113.079C68.9999 113.258 69.0102 113.438 69.0309 113.616L68.3818 113.691ZM69.1296 112.002L68.4925 111.843C68.5646 111.53 68.6759 111.228 68.8238 110.943L69.3924 111.261L69.1081 111.102L69.3932 111.261C69.2765 111.497 69.188 111.745 69.1296 112V112.002Z" fill="#2E6092"/>
<path d="M86.8559 72.65C86.9841 73.0147 87.1441 73.4464 87.9501 73.1374C89.0444 72.7137 87.2979 70.8047 87.2979 70.8047C86.6886 70.4814 86.7276 72.2852 86.8559 72.65Z" fill="#50D1FF"/>
<path d="M80.8638 67.9414C79.8404 67.5241 79.3092 69.9443 79.1316 70.7654C79.048 71.1508 78.469 71.1206 77.8781 70.9804C77.6032 70.6432 77.257 70.3712 76.8643 70.184C75.5566 69.5469 74.0211 69.8933 73.435 70.9557C72.8488 72.0181 73.435 73.3943 74.7427 74.0298C74.9021 74.1083 75.0678 74.1733 75.238 74.2242L75.2205 74.2751L73.208 77.62L80.7738 79.3522C80.7738 79.3522 81.1043 77.8263 81.1043 76.9088C89.7771 79.3522 86.7818 67.0271 86.7818 67.0271C85.8891 68.776 81.888 68.3587 80.8638 67.9414Z" fill="#7BDCFF"/>
<path d="M73.2073 77.616L80.7707 79.3482L81.1012 76.904L75.2373 74.2201L73.2073 77.616ZM76.5123 72.8997C76.4648 72.8996 76.4187 72.8839 76.3809 72.8552C76.3431 72.8265 76.3157 72.7862 76.3029 72.7404C76.1356 72.1487 75.8768 71.772 75.5336 71.6207C75.1234 71.4399 74.7093 71.6438 74.7053 71.6454C74.6798 71.6584 74.6521 71.6663 74.6235 71.6686C74.595 71.6709 74.5663 71.6675 74.5391 71.6587C74.5119 71.6499 74.4867 71.6358 74.4649 71.6173C74.4432 71.5987 74.4252 71.5761 74.4122 71.5506C74.3992 71.5252 74.3913 71.4974 74.389 71.4689C74.3868 71.4404 74.3901 71.4117 74.3989 71.3844C74.4077 71.3572 74.4218 71.332 74.4403 71.3102C74.4589 71.2885 74.4815 71.2706 74.507 71.2575C74.5309 71.2448 75.1019 70.9581 75.7016 71.2193C76.1723 71.424 76.5155 71.8963 76.721 72.6218C76.7367 72.6774 76.7297 72.737 76.7014 72.7875C76.6732 72.838 76.6261 72.8752 76.5705 72.891C76.5516 72.8964 76.532 72.8994 76.5123 72.8997Z" fill="#50D1FF"/>
<path d="M75.3917 72.8985C75.3532 72.8985 75.3154 72.8884 75.2821 72.8691C75.2488 72.8498 75.2213 72.822 75.2022 72.7886C75.1743 72.7384 74.9338 72.2924 75.1225 71.9006C75.238 71.6617 75.4753 71.5112 75.8281 71.4538C75.8836 71.448 75.9391 71.4636 75.9834 71.4974C76.0277 71.5312 76.0574 71.5807 76.0664 71.6358C76.0753 71.6908 76.0629 71.7471 76.0316 71.7933C76.0004 71.8394 75.9526 71.8718 75.8982 71.8839C75.6943 71.9173 75.5661 71.9858 75.5159 72.0886C75.4363 72.2478 75.5382 72.4939 75.5828 72.5744C75.6013 72.6076 75.6107 72.645 75.6103 72.6829C75.6098 72.7209 75.5994 72.7581 75.5802 72.7908C75.561 72.8235 75.5336 72.8507 75.5007 72.8696C75.4677 72.8885 75.4305 72.8984 75.3925 72.8985H75.3917Z" fill="#50D1FF"/>
<path d="M83.2354 69.0676C83.1498 69.0678 83.0676 69.034 83.0069 68.9737C82.9762 68.9436 82.9518 68.9079 82.9349 68.8684C82.9181 68.829 82.9092 68.7866 82.9088 68.7437C82.9083 68.7008 82.9163 68.6582 82.9323 68.6184C82.9484 68.5786 82.9721 68.5424 83.0021 68.5117C83.8678 67.6301 85.0464 68.2227 85.0966 68.2481C85.1737 68.2877 85.2319 68.3563 85.2584 68.4389C85.2849 68.5214 85.2776 68.6111 85.238 68.6881C85.1984 68.7652 85.1298 68.8234 85.0473 68.85C84.9647 68.8765 84.8751 68.8691 84.798 68.8295C84.7629 68.812 83.9936 68.4313 83.4688 68.9697C83.4384 69.0007 83.4021 69.0254 83.362 69.0422C83.3219 69.0591 83.2789 69.0677 83.2354 69.0676Z" fill="#3E82C6"/>
<path d="M84.7534 71.1067C85.0969 71.1067 85.3754 70.8454 85.3754 70.523C85.3754 70.2006 85.0969 69.9392 84.7534 69.9392C84.4099 69.9392 84.1314 70.2006 84.1314 70.523C84.1314 70.8454 84.4099 71.1067 84.7534 71.1067Z" fill="#3C5268"/>
<path d="M85.8389 75.3137C84.7279 75.3137 83.9745 74.5874 83.9387 74.5524C83.9166 74.5327 83.8987 74.5088 83.8861 74.4821C83.8735 74.4553 83.8665 74.4263 83.8654 74.3968C83.8644 74.3672 83.8694 74.3378 83.8801 74.3102C83.8908 74.2826 83.9069 74.2575 83.9276 74.2364C83.9483 74.2153 83.9731 74.1986 84.0004 74.1873C84.0277 74.1761 84.0571 74.1705 84.0866 74.1709C84.1162 74.1713 84.1454 74.1778 84.1724 74.1898C84.1994 74.2019 84.2236 74.2193 84.2437 74.241C84.2517 74.2497 85.1134 75.0716 86.2722 74.8335C86.3004 74.8274 86.3296 74.8269 86.358 74.8322C86.3864 74.8374 86.4135 74.8482 86.4377 74.864C86.4619 74.8798 86.4827 74.9003 86.499 74.9242C86.5152 74.9481 86.5265 74.975 86.5323 75.0033C86.538 75.0317 86.5381 75.0608 86.5325 75.0892C86.5268 75.1175 86.5157 75.1445 86.4995 75.1685C86.4834 75.1925 86.4627 75.213 86.4385 75.2289C86.4144 75.2448 86.3874 75.2558 86.359 75.2612C86.1878 75.2961 86.0136 75.3137 85.8389 75.3137Z" fill="#50D1FF"/>
<path d="M92.4817 98.5662C92.4817 98.5662 89.2635 87.7408 88.3102 85.475C87.3569 83.2093 86.3152 81.5305 82.3802 80.1033C80.3239 76.0751 73.8706 76.5115 73.2072 76.5792C72.5438 76.6469 71.3835 77.7539 71.3835 77.7539C58.2421 79.0967 56.3634 110.062 56.3634 110.062L71.1358 111.64L81.8992 112.79L82.4678 102.596C82.4678 102.596 84.4341 107.632 86.7763 108.303C89.1185 108.974 105.801 107.044 105.801 107.044L105.084 99.0719L92.4817 98.5662Z" fill="#89ACCE"/>
<g style="mix-blend-mode:multiply" opacity="0.25">
<path d="M71.1373 111.641L81.9006 112.791L82.4692 102.598L79.6022 94.1804C79.6022 94.1804 73.7869 105.934 71.1373 111.641Z" fill="#3A74AD"/>
</g>
<path d="M82.1014 109.196L81.9572 110.948L90.6228 112.313C86.0961 105.612 82.1014 109.196 82.1014 109.196Z" fill="#7BDCFF"/>
<path d="M83.9251 60.1113C77.7061 56.9791 76.4892 61.0057 76.4892 61.0057C65.3659 63.6386 70.5672 70.9678 71.1899 72.0844C71.3747 72.4157 71.7729 72.8274 72.2404 73.2432C72.1695 73.1006 67.8666 64.4286 75.8624 62.2783C72.4713 64.8507 70.904 66.1281 72.1918 70.189C72.5653 67.4653 73.5529 64.2908 76.5139 63.637C76.6731 64.0105 73.8722 66.5494 77.6081 69.5303C76.9543 67.2805 78.6355 63.3582 78.6355 63.3582C78.6355 63.3582 80.4194 57.7667 87.278 62.2903C87.2777 62.2884 87.2777 62.2865 87.278 62.2847C86.9172 61.8244 85.9647 61.1387 83.9251 60.1113Z" fill="#1D5791"/>
<path d="M246.393 64.944C246.393 64.944 243.297 72.6547 240.158 72.3202C239.478 72.2374 238.817 72.0395 238.204 71.7348C235.947 70.6565 234.228 68.5254 234.228 68.5254L226.812 74.8966C226.812 74.8966 228.655 80.2993 238.422 82.0641C240.058 82.3596 241.596 82.0036 243.024 81.2064C250.112 77.2491 254.453 62.4114 254.453 62.4114L245.73 62.0403L246.393 64.944Z" fill="#7BDCFF"/>
<path d="M238.204 71.7346C235.947 70.6563 234.228 68.5251 234.228 68.5251L226.812 74.8963C226.812 74.8963 228.655 80.2991 238.422 82.0639C240.058 82.3594 241.596 82.0034 243.024 81.2062C235.857 78.4276 238.204 71.7346 238.204 71.7346Z" fill="#50D1FF"/>
<path d="M228.136 151.548L220.951 152.265L219.995 159.273L244.939 160.235C244.939 160.235 243.453 157.476 228.136 151.548Z" fill="#2774C1"/>
<path d="M219.735 161.199L244.677 161.474L244.939 160.233L219.998 159.268L219.735 161.199Z" fill="#134E89"/>
<path d="M228.277 155.64C228.221 155.639 228.165 155.622 228.118 155.591C228.054 155.548 228.01 155.481 227.995 155.406C227.98 155.33 227.996 155.252 228.038 155.188C228.213 154.926 228.383 154.65 228.548 154.383C228.983 153.68 229.431 152.949 230.026 152.349C230.081 152.296 230.154 152.267 230.229 152.267C230.305 152.268 230.378 152.298 230.432 152.351C230.486 152.404 230.517 152.476 230.519 152.552C230.52 152.628 230.492 152.701 230.44 152.757C229.892 153.314 229.46 154.012 229.043 154.688C228.875 154.959 228.702 155.24 228.522 155.51C228.495 155.551 228.459 155.583 228.416 155.606C228.373 155.628 228.326 155.64 228.277 155.64ZM229.843 156.127C229.791 156.126 229.74 156.112 229.695 156.084C229.65 156.057 229.614 156.018 229.589 155.972C229.565 155.926 229.553 155.874 229.556 155.822C229.558 155.769 229.575 155.719 229.604 155.675C229.779 155.413 229.949 155.137 230.115 154.87C230.549 154.167 230.998 153.437 231.592 152.836C231.647 152.786 231.719 152.758 231.793 152.76C231.868 152.761 231.939 152.791 231.992 152.843C232.046 152.895 232.077 152.966 232.079 153.04C232.082 153.115 232.056 153.187 232.006 153.243C231.457 153.801 231.026 154.5 230.609 155.175C230.441 155.447 230.267 155.727 230.088 155.998C230.061 156.038 230.025 156.071 229.982 156.093C229.939 156.116 229.891 156.127 229.843 156.127ZM231.559 156.743C231.507 156.742 231.456 156.728 231.411 156.701C231.366 156.673 231.329 156.635 231.305 156.588C231.28 156.542 231.269 156.49 231.271 156.437C231.274 156.385 231.291 156.334 231.32 156.291C231.495 156.029 231.665 155.753 231.83 155.486C232.264 154.783 232.713 154.052 233.307 153.452C233.362 153.399 233.435 153.37 233.511 153.37C233.586 153.37 233.659 153.4 233.713 153.453C233.767 153.506 233.799 153.578 233.8 153.654C233.802 153.73 233.774 153.803 233.722 153.859C233.174 154.416 232.742 155.115 232.325 155.791C232.157 156.062 231.984 156.343 231.804 156.613C231.777 156.653 231.741 156.686 231.698 156.709C231.655 156.731 231.608 156.743 231.559 156.743Z" fill="white"/>
<path d="M204.269 151.548C188.952 157.476 187.465 160.229 187.465 160.229L212.406 159.264L211.45 152.256L204.269 151.548Z" fill="#2774C1"/>
<path d="M187.467 160.233L187.729 161.474L212.67 161.199L212.407 159.268L187.467 160.233Z" fill="#134E89"/>
<path d="M204.128 155.93C204.081 155.93 204.034 155.918 203.992 155.895C203.951 155.872 203.915 155.84 203.889 155.8C203.709 155.53 203.536 155.25 203.368 154.979C202.951 154.303 202.519 153.604 201.971 153.046C201.942 153.02 201.918 152.987 201.902 152.951C201.886 152.915 201.877 152.876 201.877 152.837C201.876 152.798 201.883 152.758 201.898 152.722C201.913 152.686 201.935 152.652 201.964 152.625C201.992 152.597 202.025 152.576 202.062 152.561C202.099 152.547 202.138 152.54 202.177 152.542C202.217 152.543 202.255 152.552 202.291 152.569C202.327 152.586 202.359 152.61 202.385 152.639C202.98 153.243 203.429 153.97 203.863 154.673C204.028 154.941 204.198 155.216 204.373 155.478C204.415 155.542 204.431 155.621 204.416 155.696C204.401 155.772 204.357 155.838 204.293 155.881C204.244 155.914 204.187 155.931 204.128 155.93ZM202.562 156.417C202.515 156.417 202.468 156.405 202.427 156.382C202.385 156.359 202.35 156.327 202.323 156.288C202.144 156.018 201.971 155.737 201.803 155.466C201.386 154.79 200.954 154.091 200.406 153.534C200.377 153.507 200.353 153.475 200.337 153.439C200.321 153.403 200.312 153.364 200.312 153.324C200.311 153.285 200.318 153.246 200.333 153.209C200.348 153.173 200.371 153.14 200.399 153.112C200.427 153.085 200.46 153.063 200.497 153.049C200.534 153.034 200.573 153.028 200.612 153.029C200.652 153.03 200.69 153.04 200.726 153.057C200.762 153.073 200.794 153.097 200.82 153.127C201.414 153.73 201.863 154.457 202.297 155.161C202.463 155.427 202.633 155.704 202.808 155.966C202.837 156.009 202.853 156.06 202.856 156.112C202.858 156.164 202.847 156.216 202.822 156.263C202.798 156.309 202.762 156.348 202.717 156.375C202.672 156.402 202.621 156.417 202.569 156.417H202.562ZM200.846 157.033C200.799 157.033 200.752 157.021 200.71 156.998C200.669 156.975 200.633 156.943 200.607 156.903C200.427 156.633 200.254 156.353 200.086 156.081C199.669 155.405 199.237 154.707 198.689 154.149C198.662 154.122 198.641 154.09 198.626 154.054C198.612 154.019 198.605 153.981 198.605 153.943C198.606 153.866 198.637 153.792 198.692 153.738C198.747 153.684 198.822 153.654 198.899 153.654C198.976 153.655 199.05 153.686 199.104 153.741C199.698 154.346 200.147 155.073 200.581 155.775C200.746 156.043 200.916 156.319 201.091 156.581C201.12 156.625 201.137 156.676 201.139 156.728C201.142 156.78 201.131 156.832 201.106 156.879C201.082 156.925 201.045 156.964 201 156.991C200.955 157.018 200.904 157.033 200.852 157.033H200.846Z" fill="white"/>
<path d="M228.738 85.4314L205.812 84.729L201.055 144.042L200.793 147.316L213.844 148.194L215.555 120.733L216.69 102.505L216.771 103.755L219.702 148.194L232.084 147.14L231.923 144.163L228.738 85.4314Z" fill="#4481BD"/>
<path d="M219.633 153.466L232.802 152.292V147.082L219.37 148.183L219.633 153.466ZM200.563 147.318L200.068 152.922L213.98 153.556L213.844 148.194L200.563 147.318Z" fill="#315C87"/>
<path d="M229.47 59.5777C226.977 58.3034 221.087 58.1911 221.087 58.1911C221.087 58.1911 211.077 56.0289 206.22 60.421C198.444 67.4477 204.295 83.9307 204.295 83.9307L204.613 90.3362L229.71 89.57L229.168 77.0116L238.668 70.9455C238.668 70.9455 231.963 60.8447 229.47 59.5777Z" fill="#48C3EF"/>
<path d="M204.295 83.9276L204.613 90.333L229.71 89.5669L228.754 65.9712C228.754 65.9712 224.685 86.0014 204.295 83.9276Z" fill="#2774C1"/>
<path d="M223.266 42.373C226.69 39.5402 220.08 40.9634 220.08 40.9634C220.08 40.9634 221.14 38.3982 218.155 39.228C215.17 40.0579 214.659 42.2543 214.659 42.2543C205.163 45.0815 214.5 52.2683 214.595 52.3431C214.691 52.418 218.179 50.5823 223.804 48.2751C224.171 48.1243 224.501 47.9738 224.795 47.8235C229.018 45.6669 226.051 43.558 223.266 42.373Z" fill="#133A60"/>
<path d="M223.266 42.373C226.69 39.5402 220.08 40.9634 220.08 40.9634C220.08 40.9634 221.14 38.3982 218.155 39.228C215.17 40.0579 214.659 42.2543 214.659 42.2543C205.163 45.0815 214.5 52.2683 214.595 52.3431C214.522 52.2531 209.817 46.4784 214.595 43.4657C213.439 45.6613 213.888 47.2016 213.888 47.2016C213.888 47.2016 213.719 43.4657 216.755 43.4657C216.615 44.2135 228.789 43.7707 224.799 47.8235C229.018 45.6669 226.051 43.558 223.266 42.373Z" fill="#0E2B48"/>
<path d="M224.279 46.3948L224.142 46.5477C223.326 46.8614 222.436 46.9354 221.579 46.7611C221.466 46.7707 221.349 46.781 221.228 46.7882C221.243 47.2135 220.85 47.5965 220.432 47.6642C219.98 47.7391 219.527 47.5543 219.101 47.3712C218.536 47.1285 217.97 46.8861 217.402 46.644C217.455 47.1219 217.117 47.6204 216.667 47.724C216.503 47.7622 216.323 47.7574 216.189 47.8601C216.101 47.9358 216.032 48.0303 215.986 48.1365L215.006 50.0009C214.838 50.3903 214.688 50.6786 214.613 50.8132C213.419 50.5583 212.285 51.0959 212.011 52.0874C211.719 53.1443 212.521 54.3174 213.798 54.706C214.343 54.8788 214.929 54.8724 215.47 54.6877L215.267 55.7007L214.24 59.1005C214.24 59.1005 216.182 63.147 219.933 62.1268C221.353 61.7406 222.128 59.6301 222.128 59.6301C222.128 59.6301 221.182 58.4276 221.041 56.2853V56.2279C222.092 56.3609 224.987 55.0548 224.784 51.6606C224.611 48.6717 224.341 46.7978 224.279 46.3948Z" fill="#7BDCFF"/>
<path d="M221.043 56.2859V56.2286C221.043 56.2286 219.535 56.3751 218.584 55.8893C217.681 55.429 219.146 57.4821 221.332 57.94C221.224 57.4351 221.021 56.7717 221.043 56.2859Z" fill="#50D1FF"/>
<path d="M217.599 48.8898C217.514 48.8897 217.43 48.8643 217.358 48.8168C217.287 48.7693 217.231 48.7018 217.198 48.6227C217.165 48.5436 217.156 48.4565 217.172 48.3722C217.188 48.288 217.229 48.2104 217.289 48.1492C217.991 47.4324 218.915 47.7271 219.305 47.9827C219.402 48.0461 219.47 48.1454 219.494 48.2587C219.517 48.3721 219.495 48.4902 219.432 48.5872C219.368 48.6841 219.269 48.752 219.156 48.7757C219.042 48.7994 218.924 48.7772 218.827 48.7138C218.77 48.6772 218.275 48.3849 217.907 48.7592C217.867 48.8003 217.819 48.8331 217.766 48.8555C217.714 48.8779 217.657 48.8896 217.599 48.8898ZM221.652 48.6652C221.565 48.6651 221.479 48.6385 221.407 48.5891C221.335 48.5396 221.279 48.4695 221.247 48.3879C221.215 48.3063 221.209 48.217 221.228 48.1316C221.248 48.0463 221.293 47.9689 221.357 47.9095C221.704 47.5909 222.572 47.1521 223.375 47.7454C223.468 47.8141 223.53 47.9168 223.547 48.0311C223.564 48.1453 223.535 48.2617 223.466 48.3547C223.432 48.4007 223.39 48.4395 223.341 48.469C223.292 48.4986 223.237 48.5181 223.181 48.5266C223.066 48.5438 222.95 48.5149 222.857 48.4462C222.439 48.138 221.992 48.5123 221.943 48.5561C221.862 48.6267 221.759 48.6655 221.652 48.6652Z" fill="#0B2742"/>
<path d="M220.805 51.8747C220.86 52.2362 220.931 52.6711 221.654 52.4911C222.637 52.2522 221.447 50.2022 221.447 50.2022C220.979 49.8064 220.751 51.5131 220.805 51.8747Z" fill="#50D1FF"/>
<path d="M222.605 49.2825C222.45 49.3072 222.311 49.392 222.217 49.5184C222.124 49.6449 222.084 49.803 222.106 49.9586C222.113 50.0356 222.136 50.1103 222.172 50.1784C222.209 50.2466 222.258 50.3068 222.318 50.3557C222.378 50.4045 222.447 50.441 222.521 50.4629C222.595 50.4848 222.673 50.4918 222.75 50.4835C222.905 50.4585 223.044 50.3737 223.137 50.2473C223.231 50.1209 223.271 49.9629 223.249 49.8073C223.242 49.7304 223.219 49.6557 223.183 49.5875C223.146 49.5193 223.097 49.4591 223.037 49.4103C222.977 49.3614 222.908 49.325 222.834 49.303C222.76 49.2811 222.682 49.2741 222.605 49.2825ZM218.735 49.6568C218.58 49.6815 218.44 49.7663 218.347 49.8927C218.254 50.0192 218.214 50.1773 218.236 50.3329C218.243 50.4099 218.265 50.4846 218.301 50.5528C218.338 50.621 218.387 50.6812 218.447 50.73C218.507 50.7788 218.576 50.8151 218.65 50.8369C218.724 50.8587 218.802 50.8655 218.879 50.857C219.034 50.8324 219.174 50.7478 219.267 50.6215C219.36 50.4952 219.4 50.3372 219.378 50.1816C219.371 50.1046 219.349 50.0299 219.312 49.9617C219.276 49.8934 219.227 49.8332 219.167 49.7843C219.107 49.7354 219.038 49.699 218.964 49.6771C218.889 49.6552 218.812 49.6483 218.735 49.6568Z" fill="#0B2742"/>
<path d="M215.121 53.7066C215.072 53.7066 215.025 53.6903 214.986 53.6603C214.948 53.6303 214.921 53.5883 214.909 53.541C214.741 52.8617 214.465 52.4205 214.113 52.2667C213.731 52.1003 213.353 52.3042 213.349 52.3066C213.299 52.3311 213.241 52.3355 213.188 52.319C213.135 52.3024 213.09 52.2661 213.063 52.2175C213.035 52.1689 213.028 52.1117 213.041 52.0576C213.055 52.0035 213.088 51.9567 213.135 51.9267C213.158 51.9139 213.698 51.6137 214.281 51.8646C214.774 52.0764 215.128 52.606 215.333 53.4374C215.34 53.4652 215.342 53.4941 215.337 53.5224C215.333 53.5507 215.323 53.5778 215.308 53.6023C215.294 53.6268 215.274 53.6481 215.251 53.6651C215.228 53.682 215.202 53.6943 215.174 53.7011C215.157 53.7049 215.139 53.7068 215.121 53.7066Z" fill="#50D1FF"/>
<path d="M214.01 53.6994C213.969 53.6995 213.93 53.6883 213.895 53.6671C213.861 53.6458 213.833 53.6154 213.815 53.5792C213.787 53.5234 213.547 53.0217 213.76 52.5972C213.88 52.3583 214.11 52.2086 214.444 52.1496C214.499 52.1427 214.556 52.1574 214.601 52.1906C214.646 52.2239 214.676 52.2732 214.686 52.3283C214.696 52.3834 214.684 52.4402 214.653 52.4868C214.622 52.5335 214.574 52.5664 214.52 52.5789C214.328 52.6123 214.201 52.684 214.149 52.7923C214.051 52.9851 214.156 53.2861 214.205 53.3856C214.221 53.4188 214.229 53.4556 214.227 53.4926C214.225 53.5295 214.214 53.5654 214.195 53.5968C214.175 53.6282 214.148 53.6541 214.116 53.6721C214.083 53.6901 214.047 53.6995 214.01 53.6994Z" fill="#50D1FF"/>
<path d="M222.094 53.5284C221.605 53.6216 220.769 53.6956 220.199 53.5196C219.381 53.2664 219.98 55.0057 221.118 54.8735C221.845 54.7883 222.212 54.2499 222.354 53.8039C222.413 53.6136 222.294 53.4902 222.094 53.5284Z" fill="white"/>
<path d="M203.277 80.497C203.277 80.497 205.319 87.8302 209.971 88.7182C214.624 89.6062 217.198 86.4182 217.198 86.4182L209.802 79.7532L203.277 80.497Z" fill="#50D1FF"/>
<path d="M212.657 69.1327L209.986 82.2781L202.327 83.9577L202.37 84.7939L231.094 83.2123L233.526 68.6127L232.898 68.0186L212.657 69.1327Z" fill="#32495F"/>
<path d="M212.657 69.1327L209.986 82.2781L202.327 83.9577L202.37 84.7939L211.657 84.2826L213.419 69.7197L233.526 68.6127L232.898 68.0186L212.657 69.1327Z" fill="#132333"/>
<path d="M221.281 75.2715C220.078 76.3745 219.804 78.1106 220.668 79.1492C221.533 80.1877 223.207 80.1351 224.412 79.0313C225.616 77.9275 225.888 76.1921 225.024 75.1536C224.16 74.1151 222.483 74.1685 221.281 75.2715Z" fill="#132333"/>
<path d="M219.181 80.6095C218.623 80.6891 218.053 83.7656 218.053 83.7656C218.053 83.7656 218.053 79.7159 217.492 79.747C216.93 79.778 216.351 83.8142 216.351 83.8142C216.351 83.8142 216.245 79.9524 215.583 79.7159C215.044 79.5232 214.891 82.4428 214.852 83.5386C214.852 83.5505 214.848 83.562 214.84 83.5709C214.832 83.5797 214.821 83.5852 214.809 83.5863C214.797 83.5874 214.785 83.584 214.776 83.5768C214.766 83.5696 214.76 83.5591 214.758 83.5474C214.545 82.5734 213.968 80.1611 213.49 80.3331C212.895 80.5481 213.881 84.6799 212.676 84.8375C211.471 84.9952 211.296 83.5713 210.717 83.8763C210.139 84.1813 209.34 86.8867 215.306 86.6031C215.306 86.6031 218.551 86.7887 219.334 85.1075C220.049 83.5689 219.741 80.533 219.181 80.6095Z" fill="#7BDCFF"/>
<path d="M229 101.598L228.945 101.658C229.165 101.849 229.399 102.025 229.644 102.183C229.529 102.094 229.42 101.997 229.314 101.899C229.208 101.801 229.102 101.7 229 101.598ZM227.718 100.406C227.907 100.631 228.102 100.848 228.306 101.058L228.413 100.96C228.224 100.742 228.043 100.518 227.87 100.287L227.718 100.406ZM226.692 98.9814C226.851 99.2261 227.014 99.4696 227.181 99.7117L227.369 99.581C227.218 99.3358 227.065 99.0915 226.911 98.8484L226.692 98.9814ZM225.86 97.4324L226.25 98.2208L226.496 98.091L226.12 97.3145L225.86 97.4324ZM225.222 95.795L225.516 96.6232L225.786 96.5181L225.49 95.7058L225.222 95.795ZM224.771 94.0978L224.973 94.9524L225.233 94.8807L225.014 94.0437L224.771 94.0978ZM224.502 92.3665C224.537 92.6558 224.575 92.9452 224.615 93.2345L224.828 93.1971C224.779 92.9125 224.728 92.6279 224.676 92.3434L224.502 92.3665ZM224.408 90.62C224.415 90.9106 224.423 91.2021 224.433 91.496L224.554 91.4856C224.525 91.1973 224.494 90.9091 224.461 90.62H224.408ZM210.587 90.6423L210.667 90.647C210.672 90.3556 210.671 90.0641 210.657 89.771C210.642 90.0641 210.616 90.3532 210.587 90.6423ZM210.36 92.3657L210.552 92.3919L210.631 91.5199L210.486 91.5056L210.36 92.3657ZM210.021 94.0652L210.272 94.1217C210.327 93.835 210.381 93.5475 210.432 93.26L210.206 93.2194C210.143 93.5013 210.082 93.7833 210.021 94.0652ZM209.54 95.7249L209.81 95.8173L210.068 94.9763L209.8 94.9014L209.54 95.7249ZM208.865 97.3065L209.114 97.4387C209.253 97.1786 209.38 96.9131 209.496 96.6423L209.23 96.5292C209.119 96.791 208.998 97.0501 208.865 97.3065ZM207.922 98.7321L208.109 98.8914C208.306 98.6701 208.489 98.4365 208.656 98.1921L208.432 98.0424C208.277 98.2828 208.106 98.5131 207.922 98.7321ZM206.644 99.851L206.731 100.001C206.992 99.86 207.239 99.695 207.469 99.5078L207.33 99.3429C207.116 99.5309 206.886 99.7009 206.644 99.851ZM205.042 100.47L205.05 100.519C205.342 100.489 205.63 100.43 205.91 100.343L205.872 100.231C205.603 100.334 205.325 100.414 205.042 100.47ZM217.434 90.9568C217.438 90.6662 217.442 90.3755 217.442 90.0808C217.406 90.3696 217.374 90.6587 217.344 90.9481L217.434 90.9568ZM217.182 92.6882L217.386 92.7002L217.413 91.8289L217.259 91.8193L217.182 92.6882ZM217.045 94.426L217.311 94.4427L217.352 93.5714L217.109 93.5571L217.045 94.426ZM216.928 96.1653L217.217 96.1828L217.266 95.3131L216.984 95.2956L216.928 96.1653ZM216.831 97.9062L217.103 97.9229C217.125 97.633 217.142 97.3432 217.161 97.0533L216.878 97.0358C216.863 97.3256 216.843 97.6155 216.831 97.9062ZM216.758 99.6479L216.973 99.6607C216.996 99.3716 217.023 99.0817 217.043 98.7918L216.793 98.7767C216.775 99.0674 216.766 99.3573 216.758 99.6479ZM216.702 101.391L216.81 101.398C216.839 101.109 216.868 100.819 216.89 100.53L216.72 100.519C216.714 100.81 216.708 101.101 216.702 101.391ZM216.689 102.505L216.717 102.266L216.69 102.264L216.689 102.505ZM217.418 98.5895L217.408 98.2988C217.677 98.2922 217.94 98.2253 218.18 98.1029L218.314 98.361C218.036 98.5032 217.73 98.5814 217.418 98.5895ZM219.026 97.778L218.803 97.59C218.981 97.3751 219.132 97.1392 219.252 96.8876L219.513 97.0151C219.382 97.288 219.218 97.5442 219.026 97.778ZM219.841 96.1852L219.564 96.0968C219.644 95.8427 219.718 95.5632 219.781 95.2669L220.065 95.3275C220 95.6325 219.925 95.9216 219.841 96.1852ZM220.215 94.4578L219.928 94.418C219.966 94.144 219.998 93.8549 220.023 93.5579L220.313 93.5826C220.287 93.8844 220.254 94.1791 220.215 94.4578ZM220.367 92.7057L220.078 92.6938C220.089 92.4119 220.095 92.1204 220.096 91.8265H220.387C220.386 92.1252 220.379 92.4206 220.367 92.7057ZM220.084 90.96C220.067 90.4344 220.039 90.0999 220.039 90.0967L220.328 90.072C220.328 90.0856 220.357 90.4169 220.375 90.9481L220.084 90.96Z" fill="white"/>
<g style="mix-blend-mode:multiply">
<path d="M223.19 143.743L216.937 101.451L216.771 103.755L219.702 148.194L232.084 147.14L231.923 144.163L223.19 143.743ZM201.055 144.041L200.793 147.315L213.844 148.194L215.555 120.733L213.98 142.688L201.055 144.041Z" fill="#4481BD"/>
</g>
<path d="M210.288 68.8919C210.386 68.3814 210.514 67.8765 210.659 67.3716C210.441 67.8506 210.259 68.3452 210.115 68.8513C209.975 69.3602 209.865 69.8765 209.784 70.3979C209.704 70.9195 209.656 71.446 209.625 71.9724C209.594 72.4988 209.595 73.0268 209.606 73.5532C209.617 74.0797 209.657 74.6061 209.708 75.1301C209.76 75.6541 209.829 76.1758 209.919 76.6934C210.085 77.7311 210.333 78.7539 210.661 79.7524C210.471 78.7219 210.319 77.6889 210.198 76.6544C210.142 76.136 210.084 75.6191 210.049 75.0998C210.014 74.5806 209.981 74.0645 209.97 73.5437C209.937 72.5073 209.97 71.4699 210.068 70.4377C210.12 69.9177 210.193 69.404 210.288 68.8919Z" fill="#2774C1"/>
<g style="mix-blend-mode:multiply" opacity="0.5">
<path d="M91.7728 129.831L88.5618 157.508L103.497 157.318C89.1638 157.056 91.6279 131.237 91.7728 129.831Z" fill="#3A74AD"/>
</g>
</svg>
