<svg xmlns="http://www.w3.org/2000/svg" width="50" height="45" viewBox="0 0 50 45" fill="none">
  <path d="M10.4248 22.1355V19.8724L20.5449 10.3896L30.6701 16.2009L40.1429 7.20068L41.2449 8.44134L30.6701 18.4612L20.5449 12.6526L10.4248 22.1355Z" fill="#05E5FE"/>
  <path d="M44.3874 4.52148L43.2248 9.36159L39.4346 4.98363L44.3874 4.52148Z" fill="#05E5FE"/>
  <path d="M12.8082 29.3027H8.03539C7.07437 29.3027 6.29602 30.0816 6.29602 31.0465V38.7824H14.5507V31.0465C14.5507 30.0816 13.7696 29.3027 12.8082 29.3027Z" fill="#12B7F2"/>
  <path d="M22.9307 19.8232H18.161C17.1969 19.8232 16.4185 20.6049 16.4185 21.5639V38.7822H24.6701V21.5639C24.6701 20.6049 23.8949 19.8232 22.9307 19.8232Z" fill="#05E5FE"/>
  <path d="M33.0563 25.6357H28.2835C27.3225 25.6357 26.5441 26.4147 26.5441 27.3764V38.7826H34.7965V27.376C34.7965 26.4143 34.0181 25.6357 33.0563 25.6357Z" fill="#12B7F2"/>
  <path d="M44.9189 17.754C44.9189 16.7907 44.1405 16.0103 43.1795 16.0103H38.4035C37.4452 16.0103 36.6665 16.7903 36.6665 17.754V38.7822H44.9189V17.754Z" fill="#05E5FE"/>
  <path d="M2.46614 41.79V0H0V44.2611H0.0185039H2.46614H50V41.79H2.46614Z" fill="#12B7F2"/>
</svg>