<svg xmlns="http://www.w3.org/2000/svg" width="50" height="53" viewBox="0 0 50 53" fill="none">
  <path d="M0 43.2526L8.86773 48.3702V38.1312L0 33.0137V43.2526Z" fill="#05B1E5"/>
  <path d="M20.4331 33.0137L11.5658 38.1312V48.3702L20.4331 43.2526V33.0137Z" fill="#05B1E5"/>
  <path d="M10.2167 25.5581L1.349 30.6757L10.2167 35.7971L19.084 30.6757L10.2167 25.5581Z" fill="#05B1E5"/>
  <path d="M29.567 43.2526L38.4343 48.3702V38.1312L29.567 33.0137V43.2526Z" fill="#05B1E5"/>
  <path d="M41.1323 38.1312V48.3702L50 43.2526V33.0137L41.1323 38.1312Z" fill="#05B1E5"/>
  <path d="M39.7833 25.5581L30.916 30.6757L39.7833 35.7971L48.651 30.6757L39.7833 25.5581Z" fill="#05B1E5"/>
  <path d="M23.651 12.5731L14.7837 7.45557V17.6945L23.651 22.8121V12.5731Z" fill="#05B1E5"/>
  <path d="M26.349 22.8121L35.2163 17.6945V7.45557L26.349 12.5731V22.8121Z" fill="#05B1E5"/>
  <path d="M33.8673 5.11756L25 0L16.1327 5.11756L25 10.239L33.8673 5.11756Z" fill="#05B1E5"/>
  <path d="M7.59717 18.6615L11.3219 16.5111V12.5933L5.05247 16.2129C4.79457 16.3618 4.58041 16.576 4.43152 16.8339C4.28262 17.0918 4.20423 17.3843 4.20422 17.6821V25.0616L7.59717 23.1036V18.6615ZM42.4029 23.1036L45.7958 25.0616V17.6821C45.7958 17.3843 45.7174 17.0918 45.5685 16.8339C45.4196 16.576 45.2055 16.3618 44.9476 16.2129L38.6782 12.5933V16.5111L42.4029 18.6615L42.4029 23.1036ZM25 48.8041L21.3969 46.7239L18.0031 48.6823L24.1518 52.2322C24.4097 52.3811 24.7022 52.4595 25 52.4595C25.2978 52.4595 25.5903 52.3811 25.8482 52.2322L31.9969 48.6823L28.6031 46.7239L25 48.8041Z" fill="#05B1E5"/>
</svg>