<svg xmlns="http://www.w3.org/2000/svg" width="180" height="240" viewBox="0 0 180 240" fill="none">
  <g opacity="0.2">
    <path fill-rule="evenodd" clip-rule="evenodd" d="M130.334 93.3717C121.279 73.6323 105.295 62.6522 86.2185 52.5694C82.9971 50.8675 74.9886 47.0062 68.0084 45.8857C63.0726 45.092 58.6529 45.7287 56.5086 49.065C54.6325 51.9792 55.2156 55.471 57.2275 59.0039C61.595 66.676 72.7206 74.6256 76.3103 76.7567C92.4829 86.3505 110.771 92.4622 129.294 94.8476C129.835 96.0683 130.352 97.3261 130.842 98.6193C132.311 102.518 133.676 107.315 133.875 111.988C134.07 116.53 133.166 120.962 130.091 124.271C123.677 131.175 111.784 132.298 98.798 130.667C95.9677 130.314 93.0887 129.825 90.1966 129.232C89.3515 127.411 88.2694 125.555 86.9919 123.685C77.0825 109.181 55.7073 93.7887 48.7157 90.0876C45.603 88.4395 39.9152 85.3272 34.8514 84.7113C31.2306 84.2702 27.9248 85.0845 25.9078 88.3014C24.1092 91.1661 24.7378 94.5194 26.7799 97.8899C31.1902 105.168 42.2588 112.59 45.992 114.77C54.4782 119.729 71.8931 126.989 89.1531 130.639C90.7623 134.345 91.2471 137.841 90.006 140.879C88.2813 145.106 83.4859 147.069 77.4308 147.774C75.6044 147.986 73.6647 148.082 71.6578 148.076C71.5396 147.95 71.4224 147.829 71.3041 147.703C61.7543 137.687 47.4381 128.96 40.8063 125.691C37.8147 124.214 32.2159 121.928 27.3857 121.823C23.9392 121.751 20.8843 122.785 19.2354 125.757C17.5417 128.809 18.8347 131.815 21.3903 134.401C24.8793 137.927 30.7034 140.675 32.8734 141.68C38.9824 144.517 56.6132 149.464 70.9877 149.661C73.7377 152.651 76.0296 155.747 77.5054 158.839C79.0677 162.1 79.7202 165.353 78.9851 168.454C77.1654 176.1 69.3639 178.787 60.0344 178.985C57.1934 179.045 54.2103 178.869 51.1964 178.514C50.5114 175.458 48.8457 172.286 46.5376 169.206C41.0968 161.952 32.1191 155.168 24.682 151.595C22.1166 150.361 17.566 148.479 13.6642 148.489C10.843 148.495 8.35638 149.473 7.00092 152.156C5.3516 155.415 6.32757 158.618 8.49422 161.474C11.5107 165.443 16.8607 168.733 19.6694 170.499C25.1859 173.962 37.6769 178.339 49.9036 179.953C50.0756 181.222 50.0408 182.461 49.7626 183.658C48.7218 188.163 44.2556 191.891 34.7758 194.156C30.1853 195.251 25.4958 195.849 20.7924 195.517C14.0128 195.043 7.73541 193.181 1.39913 190.776C0.999109 190.626 0.554343 190.836 0.408236 191.25C0.259461 191.662 0.464185 192.123 0.864195 192.273C7.33828 194.73 13.7589 196.622 20.6857 197.107C25.5405 197.447 30.3827 196.838 35.1203 195.709C45.438 193.243 50.1297 188.928 51.2645 184.026C51.5529 182.773 51.6106 181.474 51.4684 180.145C54.3995 180.477 57.2951 180.637 60.0616 180.577C70.1974 180.363 78.5075 177.135 80.4823 168.83C81.9403 162.696 78.5876 155.963 73.0838 149.654C74.6441 149.619 76.1554 149.525 77.5979 149.357C84.311 148.577 89.5161 146.181 91.428 141.498C92.7002 138.379 92.3946 134.798 90.948 131.005C93.522 131.511 96.0857 131.934 98.6103 132.249C112.148 133.947 124.514 132.572 131.204 125.372C133.913 122.457 135.123 118.763 135.387 114.837C135.767 109.116 134.113 102.903 132.277 98.0383C131.896 97.0272 131.498 96.0351 131.083 95.0662C133.152 95.3047 135.223 95.5004 137.295 95.6448C142.42 96.0059 148.593 96.2223 154.151 94.9122C157.948 94.0149 161.458 92.4091 164.19 89.6882C168.108 85.7958 168.889 80.9592 168.055 76.0915C167.25 71.3812 164.913 66.6421 162.54 62.7689C152.154 45.8155 135.841 33.115 116.211 30.3869C115.792 30.3286 115.404 30.6348 115.345 31.0709C115.287 31.5043 115.581 31.9076 116.004 31.9648C135.175 34.6294 151.093 47.0644 161.237 63.6234C163.51 67.3307 165.764 71.862 166.538 76.3734C167.281 80.723 166.626 85.0605 163.124 88.5413C159.947 91.7006 155.625 93.2056 151.089 93.8725C146.444 94.5556 141.57 94.351 137.402 94.0551C135.044 93.8876 132.684 93.6601 130.334 93.3717ZM49.5715 178.308C48.8638 175.637 47.3392 172.88 45.3177 170.185C40.0204 163.118 31.2736 156.52 24.0299 153.04C21.6121 151.88 17.3376 150.07 13.6664 150.081C11.4392 150.087 9.43542 150.775 8.36499 152.891C7.01881 155.558 7.93695 158.152 9.71021 160.49C12.6101 164.305 17.7731 167.44 20.474 169.137C25.7988 172.479 37.763 176.679 49.5715 178.308ZM69.4404 148.032C60.0405 138.493 46.5014 130.265 40.1382 127.126C37.2888 125.72 31.9547 123.514 27.3478 123.417C24.5044 123.354 21.9327 124.091 20.5728 126.546C19.2442 128.94 20.4661 131.233 22.4706 133.259C25.82 136.646 31.4269 139.261 33.508 140.228C39.2958 142.914 55.6194 147.539 69.4404 148.032ZM88.2842 128.822C87.5651 127.436 86.7025 126.028 85.7327 124.607C75.9682 110.314 54.8985 95.1515 48.0114 91.5053C45.0112 89.9169 39.5462 86.8896 34.6663 86.2949C31.6601 85.9253 28.876 86.4943 27.1993 89.1665C26.2396 90.6973 26.1965 92.4021 26.7478 94.1703C27.3426 96.0895 28.6191 98.0687 30.242 100.008C35.2705 106.015 43.6402 111.564 46.7539 113.383C54.9558 118.176 71.5965 125.14 88.2842 128.822ZM128.507 93.1381C119.534 74.3088 103.973 63.7427 85.5142 53.9871C82.3744 52.3302 74.5708 48.5541 67.7687 47.4587C65.571 47.1068 63.4826 47.0299 61.7034 47.4244C60.0529 47.7925 58.6782 48.5642 57.7923 49.9439C56.7773 51.5226 56.7048 53.3057 57.2379 55.1698C57.8162 57.1822 59.0817 59.2764 60.7005 61.3307C65.7072 67.6824 74.0884 73.5994 77.0803 75.3744C92.7912 84.6932 110.524 90.6912 128.507 93.1381Z" fill="white"/>
  </g>
</svg>