<svg xmlns="http://www.w3.org/2000/svg" width="25" height="25" viewBox="0 0 25 25" fill="none">
  <path d="M17.9199 15.6289V13.1895L15.9355 14.334V16.7754L17.9199 15.6289Z" fill="white"/>
  <path d="M17.9199 9.37109L15.8613 8.18164L12.5 10.123L9.13867 8.18164L7.08008 9.37109V11.5332L10.498 13.5078V17.6035L12.5 18.7598L14.502 17.6035V13.5078L17.9199 11.5332V9.37109ZM21.3574 9.54883V7.38672L19.2988 6.19727L17.2949 7.35352L19.3535 8.54297V10.7051L21.3574 9.54883ZM5.64648 10.7051V8.54297L7.70508 7.35352L5.70117 6.19727L3.64258 7.38672V9.54883L5.64648 10.7051Z" fill="white"/>
  <path d="M7.08008 15.6289L9.06445 16.7754V14.334L7.08008 13.1895V15.6289ZM14.502 19.2598L12.5 20.416L10.498 19.2598V21.5723L12.5 22.7285L14.502 21.5723V19.2598ZM14.4277 7.35352L12.5 6.24023L10.5723 7.35352L12.5 8.4668L14.4277 7.35352ZM19.3535 12.3613V16.457L15.9355 18.4316V20.7441L21.3574 17.6133V11.2051L19.3535 12.3613Z" fill="white"/>
  <path d="M9.06445 18.4316L5.64648 16.457V12.3613L3.64258 11.2051V17.6133L9.06445 20.7441V18.4316ZM9.13867 6.52539L12.5 4.58594L15.8613 6.52539L17.8652 5.36914L12.5 2.27148L7.13477 5.36914L9.13867 6.52539Z" fill="white"/>
</svg>